<svg xmlns="http://www.w3.org/2000/svg" width="160" height="120" viewBox="0 0 160 120">
<rect width="100%" height="100%" fill="white" />
<path d="M 0 0 L 160 0 L 160 2 L 0 2 Z" fill="black" stroke="none" />
<path d="M 0 2 L 160 2 L 160 4 L 0 4 Z" fill="black" stroke="none" />
<path d="M 0 4 L 160 4 L 160 6 L 0 6 Z" fill="black" stroke="none" />
<path d="M 0 6 L 160 6 L 160 8 L 0 8 Z" fill="black" stroke="none" />
<path d="M 0 8 L 160 8 L 160 10 L 0 10 Z" fill="black" stroke="none" />
<path d="M 0 10 L 160 10 L 160 12 L 0 12 Z" fill="black" stroke="none" />
<path d="M 0 12 L 160 12 L 160 14 L 0 14 Z" fill="black" stroke="none" />
<path d="M 0 14 L 160 14 L 160 16 L 0 16 Z" fill="black" stroke="none" />
<path d="M 0 16 L 160 16 L 160 18 L 0 18 Z" fill="black" stroke="none" />
<path d="M 0 18 L 160 18 L 160 20 L 0 20 Z" fill="black" stroke="none" />
<path d="M 0 20 L 160 20 L 160 22 L 0 22 Z" fill="black" stroke="none" />
<path d="M 0 22 L 160 22 L 160 24 L 0 24 Z" fill="black" stroke="none" />
<path d="M 0 24 L 160 24 L 160 26 L 0 26 Z" fill="black" stroke="none" />
<path d="M 0 26 L 160 26 L 160 28 L 0 28 Z" fill="black" stroke="none" />
<path d="M 0 28 L 160 28 L 160 30 L 0 30 Z" fill="black" stroke="none" />
<path d="M 0 30 L 160 30 L 160 32 L 0 32 Z" fill="black" stroke="none" />
<path d="M 0 32 L 160 32 L 160 34 L 0 34 Z" fill="black" stroke="none" />
<path d="M 0 34 L 160 34 L 160 36 L 0 36 Z" fill="black" stroke="none" />
<path d="M 0 36 L 160 36 L 160 38 L 0 38 Z" fill="black" stroke="none" />
<path d="M 0 38 L 160 38 L 160 40 L 0 40 Z" fill="black" stroke="none" />
<path d="M 0 40 L 160 40 L 160 42 L 0 42 Z" fill="black" stroke="none" />
<path d="M 0 42 L 160 42 L 160 44 L 0 44 Z" fill="black" stroke="none" />
<path d="M 0 44 L 160 44 L 160 46 L 0 46 Z" fill="black" stroke="none" />
<path d="M 0 46 L 160 46 L 160 48 L 0 48 Z" fill="black" stroke="none" />
<path d="M 0 48 L 160 48 L 160 50 L 0 50 Z" fill="black" stroke="none" />
<path d="M 0 50 L 160 50 L 160 52 L 0 52 Z" fill="black" stroke="none" />
<path d="M 0 52 L 160 52 L 160 54 L 0 54 Z" fill="black" stroke="none" />
<path d="M 0 54 L 160 54 L 160 56 L 0 56 Z" fill="black" stroke="none" />
<path d="M 0 56 L 160 56 L 160 58 L 0 58 Z" fill="black" stroke="none" />
<path d="M 0 58 L 160 58 L 160 60 L 0 60 Z" fill="black" stroke="none" />
<path d="M 0 60 L 160 60 L 160 62 L 0 62 Z" fill="black" stroke="none" />
<path d="M 0 62 L 160 62 L 160 64 L 0 64 Z" fill="black" stroke="none" />
<path d="M 0 64 L 160 64 L 160 66 L 0 66 Z" fill="black" stroke="none" />
<path d="M 0 66 L 160 66 L 160 68 L 0 68 Z" fill="black" stroke="none" />
<path d="M 0 68 L 160 68 L 160 70 L 0 70 Z" fill="black" stroke="none" />
<path d="M 0 70 L 160 70 L 160 72 L 0 72 Z" fill="black" stroke="none" />
<path d="M 0 72 L 160 72 L 160 74 L 0 74 Z" fill="black" stroke="none" />
<path d="M 0 74 L 160 74 L 160 76 L 0 76 Z" fill="black" stroke="none" />
<path d="M 0 76 L 160 76 L 160 78 L 0 78 Z" fill="black" stroke="none" />
<path d="M 0 78 L 160 78 L 160 80 L 0 80 Z" fill="black" stroke="none" />
<path d="M 0 80 L 160 80 L 160 82 L 0 82 Z" fill="black" stroke="none" />
<path d="M 0 82 L 160 82 L 160 84 L 0 84 Z" fill="black" stroke="none" />
<path d="M 0 84 L 160 84 L 160 86 L 0 86 Z" fill="black" stroke="none" />
<path d="M 0 86 L 160 86 L 160 88 L 0 88 Z" fill="black" stroke="none" />
<path d="M 0 88 L 160 88 L 160 90 L 0 90 Z" fill="black" stroke="none" />
<path d="M 0 90 L 160 90 L 160 92 L 0 92 Z" fill="black" stroke="none" />
<path d="M 0 92 L 160 92 L 160 94 L 0 94 Z" fill="black" stroke="none" />
<path d="M 0 94 L 160 94 L 160 96 L 0 96 Z" fill="black" stroke="none" />
<path d="M 0 96 L 160 96 L 160 98 L 0 98 Z" fill="black" stroke="none" />
<path d="M 0 98 L 160 98 L 160 100 L 0 100 Z" fill="black" stroke="none" />
<path d="M 0 100 L 160 100 L 160 102 L 0 102 Z" fill="black" stroke="none" />
<path d="M 0 102 L 160 102 L 160 104 L 0 104 Z" fill="black" stroke="none" />
<path d="M 0 104 L 160 104 L 160 106 L 0 106 Z" fill="black" stroke="none" />
<path d="M 0 106 L 160 106 L 160 108 L 0 108 Z" fill="black" stroke="none" />
<path d="M 0 108 L 160 108 L 160 110 L 0 110 Z" fill="black" stroke="none" />
<path d="M 0 110 L 160 110 L 160 112 L 0 112 Z" fill="black" stroke="none" />
<path d="M 0 112 L 160 112 L 160 114 L 0 114 Z" fill="black" stroke="none" />
<path d="M 0 114 L 160 114 L 160 116 L 0 116 Z" fill="black" stroke="none" />
<path d="M 0 116 L 160 116 L 160 118 L 0 118 Z" fill="black" stroke="none" />
<path d="M 0 118 L 160 118 L 160 120 L 0 120 Z" fill="black" stroke="none" />
</svg>