<svg xmlns="http://www.w3.org/2000/svg" width="128" height="128" viewBox="0 0 128 128">
<rect width="100%" height="100%" fill="white" />
<path d="M 2 0 L 126 0 L 126 2 L 2 2 Z" fill="black" stroke="none" />
<path d="M 0 2 L 128 2 L 128 4 L 0 4 Z" fill="black" stroke="none" />
<path d="M 0 4 L 128 4 L 128 6 L 0 6 Z" fill="black" stroke="none" />
<path d="M 0 6 L 128 6 L 128 8 L 0 8 Z" fill="black" stroke="none" />
<path d="M 0 8 L 128 8 L 128 10 L 0 10 Z" fill="black" stroke="none" />
<path d="M 0 10 L 128 10 L 128 12 L 0 12 Z" fill="black" stroke="none" />
<path d="M 0 12 L 128 12 L 128 14 L 0 14 Z" fill="black" stroke="none" />
<path d="M 0 14 L 128 14 L 128 16 L 0 16 Z" fill="black" stroke="none" />
<path d="M 0 16 L 128 16 L 128 18 L 0 18 Z" fill="black" stroke="none" />
<path d="M 0 18 L 128 18 L 128 20 L 0 20 Z" fill="black" stroke="none" />
<path d="M 0 20 L 128 20 L 128 22 L 0 22 Z" fill="black" stroke="none" />
<path d="M 0 22 L 128 22 L 128 24 L 0 24 Z" fill="black" stroke="none" />
<path d="M 0 24 L 128 24 L 128 26 L 0 26 Z" fill="black" stroke="none" />
<path d="M 0 26 L 128 26 L 128 28 L 0 28 Z" fill="black" stroke="none" />
<path d="M 0 28 L 128 28 L 128 30 L 0 30 Z" fill="black" stroke="none" />
<path d="M 0 30 L 128 30 L 128 32 L 0 32 Z" fill="black" stroke="none" />
<path d="M 0 32 L 128 32 L 128 34 L 0 34 Z" fill="black" stroke="none" />
<path d="M 0 34 L 128 34 L 128 36 L 0 36 Z" fill="black" stroke="none" />
<path d="M 0 36 L 128 36 L 128 38 L 0 38 Z" fill="black" stroke="none" />
<path d="M 0 38 L 128 38 L 128 40 L 0 40 Z" fill="black" stroke="none" />
<path d="M 0 40 L 128 40 L 128 42 L 0 42 Z" fill="black" stroke="none" />
<path d="M 0 42 L 128 42 L 128 44 L 0 44 Z" fill="black" stroke="none" />
<path d="M 0 44 L 128 44 L 128 46 L 0 46 Z" fill="black" stroke="none" />
<path d="M 0 46 L 128 46 L 128 48 L 0 48 Z" fill="black" stroke="none" />
<path d="M 0 48 L 128 48 L 128 50 L 0 50 Z" fill="black" stroke="none" />
<path d="M 0 50 L 128 50 L 128 52 L 0 52 Z" fill="black" stroke="none" />
<path d="M 0 52 L 128 52 L 128 54 L 0 54 Z" fill="black" stroke="none" />
<path d="M 0 54 L 128 54 L 128 56 L 0 56 Z" fill="black" stroke="none" />
<path d="M 0 56 L 128 56 L 128 58 L 0 58 Z" fill="black" stroke="none" />
<path d="M 0 58 L 128 58 L 128 60 L 0 60 Z" fill="black" stroke="none" />
<path d="M 0 60 L 128 60 L 128 62 L 0 62 Z" fill="black" stroke="none" />
<path d="M 0 62 L 128 62 L 128 64 L 0 64 Z" fill="black" stroke="none" />
<path d="M 0 64 L 128 64 L 128 66 L 0 66 Z" fill="black" stroke="none" />
<path d="M 0 66 L 128 66 L 128 68 L 0 68 Z" fill="black" stroke="none" />
<path d="M 0 68 L 128 68 L 128 70 L 0 70 Z" fill="black" stroke="none" />
<path d="M 0 70 L 128 70 L 128 72 L 0 72 Z" fill="black" stroke="none" />
<path d="M 0 72 L 128 72 L 128 74 L 0 74 Z" fill="black" stroke="none" />
<path d="M 0 74 L 128 74 L 128 76 L 0 76 Z" fill="black" stroke="none" />
<path d="M 0 76 L 128 76 L 128 78 L 0 78 Z" fill="black" stroke="none" />
<path d="M 0 78 L 128 78 L 128 80 L 0 80 Z" fill="black" stroke="none" />
<path d="M 0 80 L 128 80 L 128 82 L 0 82 Z" fill="black" stroke="none" />
<path d="M 0 82 L 128 82 L 128 84 L 0 84 Z" fill="black" stroke="none" />
<path d="M 0 84 L 128 84 L 128 86 L 0 86 Z" fill="black" stroke="none" />
<path d="M 0 86 L 128 86 L 128 88 L 0 88 Z" fill="black" stroke="none" />
<path d="M 0 88 L 128 88 L 128 90 L 0 90 Z" fill="black" stroke="none" />
<path d="M 0 90 L 128 90 L 128 92 L 0 92 Z" fill="black" stroke="none" />
<path d="M 0 92 L 128 92 L 128 94 L 0 94 Z" fill="black" stroke="none" />
<path d="M 0 94 L 128 94 L 128 96 L 0 96 Z" fill="black" stroke="none" />
<path d="M 0 96 L 128 96 L 128 98 L 0 98 Z" fill="black" stroke="none" />
<path d="M 0 98 L 128 98 L 128 100 L 0 100 Z" fill="black" stroke="none" />
<path d="M 0 100 L 128 100 L 128 102 L 0 102 Z" fill="black" stroke="none" />
<path d="M 0 102 L 128 102 L 128 104 L 0 104 Z" fill="black" stroke="none" />
<path d="M 0 104 L 128 104 L 128 106 L 0 106 Z" fill="black" stroke="none" />
<path d="M 0 106 L 128 106 L 128 108 L 0 108 Z" fill="black" stroke="none" />
<path d="M 0 108 L 128 108 L 128 110 L 0 110 Z" fill="black" stroke="none" />
<path d="M 0 110 L 128 110 L 128 112 L 0 112 Z" fill="black" stroke="none" />
<path d="M 0 112 L 128 112 L 128 114 L 0 114 Z" fill="black" stroke="none" />
<path d="M 0 114 L 128 114 L 128 116 L 0 116 Z" fill="black" stroke="none" />
<path d="M 0 116 L 128 116 L 128 118 L 0 118 Z" fill="black" stroke="none" />
<path d="M 0 118 L 128 118 L 128 120 L 0 120 Z" fill="black" stroke="none" />
<path d="M 0 120 L 128 120 L 128 122 L 0 122 Z" fill="black" stroke="none" />
<path d="M 0 122 L 128 122 L 128 124 L 0 124 Z" fill="black" stroke="none" />
<path d="M 0 124 L 128 124 L 128 126 L 0 126 Z" fill="black" stroke="none" />
<path d="M 1 126 L 127 126 L 127 128 L 1 128 Z" fill="black" stroke="none" />
</svg>