<svg xmlns="http://www.w3.org/2000/svg" width="180" height="140" viewBox="0 0 180 140">
<rect width="100%" height="100%" fill="white" />
<path d="M 2 0 L 178 0 L 178 2 L 2 2 Z" fill="black" stroke="none" />
<path d="M 0 2 L 180 2 L 180 4 L 0 4 Z" fill="black" stroke="none" />
<path d="M 0 4 L 180 4 L 180 6 L 0 6 Z" fill="black" stroke="none" />
<path d="M 0 6 L 180 6 L 180 8 L 0 8 Z" fill="black" stroke="none" />
<path d="M 0 8 L 180 8 L 180 10 L 0 10 Z" fill="black" stroke="none" />
<path d="M 0 10 L 180 10 L 180 12 L 0 12 Z" fill="black" stroke="none" />
<path d="M 0 12 L 180 12 L 180 14 L 0 14 Z" fill="black" stroke="none" />
<path d="M 0 14 L 180 14 L 180 16 L 0 16 Z" fill="black" stroke="none" />
<path d="M 0 16 L 180 16 L 180 18 L 0 18 Z" fill="black" stroke="none" />
<path d="M 0 18 L 180 18 L 180 20 L 0 20 Z" fill="black" stroke="none" />
<path d="M 0 20 L 180 20 L 180 22 L 0 22 Z" fill="black" stroke="none" />
<path d="M 0 22 L 180 22 L 180 24 L 0 24 Z" fill="black" stroke="none" />
<path d="M 0 24 L 180 24 L 180 26 L 0 26 Z" fill="black" stroke="none" />
<path d="M 0 26 L 180 26 L 180 28 L 0 28 Z" fill="black" stroke="none" />
<path d="M 0 28 L 180 28 L 180 30 L 0 30 Z" fill="black" stroke="none" />
<path d="M 0 30 L 180 30 L 180 32 L 0 32 Z" fill="black" stroke="none" />
<path d="M 0 32 L 180 32 L 180 34 L 0 34 Z" fill="black" stroke="none" />
<path d="M 0 34 L 180 34 L 180 36 L 0 36 Z" fill="black" stroke="none" />
<path d="M 0 36 L 180 36 L 180 38 L 0 38 Z" fill="black" stroke="none" />
<path d="M 0 38 L 180 38 L 180 40 L 0 40 Z" fill="black" stroke="none" />
<path d="M 0 40 L 180 40 L 180 42 L 0 42 Z" fill="black" stroke="none" />
<path d="M 0 42 L 180 42 L 180 44 L 0 44 Z" fill="black" stroke="none" />
<path d="M 0 44 L 180 44 L 180 46 L 0 46 Z" fill="black" stroke="none" />
<path d="M 0 46 L 180 46 L 180 48 L 0 48 Z" fill="black" stroke="none" />
<path d="M 0 48 L 180 48 L 180 50 L 0 50 Z" fill="black" stroke="none" />
<path d="M 0 50 L 180 50 L 180 52 L 0 52 Z" fill="black" stroke="none" />
<path d="M 0 52 L 180 52 L 180 54 L 0 54 Z" fill="black" stroke="none" />
<path d="M 0 54 L 180 54 L 180 56 L 0 56 Z" fill="black" stroke="none" />
<path d="M 0 56 L 180 56 L 180 58 L 0 58 Z" fill="black" stroke="none" />
<path d="M 0 58 L 180 58 L 180 60 L 0 60 Z" fill="black" stroke="none" />
<path d="M 0 60 L 180 60 L 180 62 L 0 62 Z" fill="black" stroke="none" />
<path d="M 0 62 L 180 62 L 180 64 L 0 64 Z" fill="black" stroke="none" />
<path d="M 0 64 L 180 64 L 180 66 L 0 66 Z" fill="black" stroke="none" />
<path d="M 0 66 L 180 66 L 180 68 L 0 68 Z" fill="black" stroke="none" />
<path d="M 0 68 L 180 68 L 180 70 L 0 70 Z" fill="black" stroke="none" />
<path d="M 0 70 L 180 70 L 180 72 L 0 72 Z" fill="black" stroke="none" />
<path d="M 0 72 L 180 72 L 180 74 L 0 74 Z" fill="black" stroke="none" />
<path d="M 0 74 L 180 74 L 180 76 L 0 76 Z" fill="black" stroke="none" />
<path d="M 0 76 L 180 76 L 180 78 L 0 78 Z" fill="black" stroke="none" />
<path d="M 0 78 L 180 78 L 180 80 L 0 80 Z" fill="black" stroke="none" />
<path d="M 0 80 L 180 80 L 180 82 L 0 82 Z" fill="black" stroke="none" />
<path d="M 0 82 L 180 82 L 180 84 L 0 84 Z" fill="black" stroke="none" />
<path d="M 0 84 L 180 84 L 180 86 L 0 86 Z" fill="black" stroke="none" />
<path d="M 0 86 L 180 86 L 180 88 L 0 88 Z" fill="black" stroke="none" />
<path d="M 0 88 L 180 88 L 180 90 L 0 90 Z" fill="black" stroke="none" />
<path d="M 0 90 L 180 90 L 180 92 L 0 92 Z" fill="black" stroke="none" />
<path d="M 0 92 L 180 92 L 180 94 L 0 94 Z" fill="black" stroke="none" />
<path d="M 0 94 L 180 94 L 180 96 L 0 96 Z" fill="black" stroke="none" />
<path d="M 0 96 L 180 96 L 180 98 L 0 98 Z" fill="black" stroke="none" />
<path d="M 0 98 L 180 98 L 180 100 L 0 100 Z" fill="black" stroke="none" />
<path d="M 0 100 L 180 100 L 180 102 L 0 102 Z" fill="black" stroke="none" />
<path d="M 0 102 L 180 102 L 180 104 L 0 104 Z" fill="black" stroke="none" />
<path d="M 0 104 L 180 104 L 180 106 L 0 106 Z" fill="black" stroke="none" />
<path d="M 0 106 L 180 106 L 180 108 L 0 108 Z" fill="black" stroke="none" />
<path d="M 0 108 L 180 108 L 180 110 L 0 110 Z" fill="black" stroke="none" />
<path d="M 0 110 L 180 110 L 180 112 L 0 112 Z" fill="black" stroke="none" />
<path d="M 0 112 L 180 112 L 180 114 L 0 114 Z" fill="black" stroke="none" />
<path d="M 0 114 L 180 114 L 180 116 L 0 116 Z" fill="black" stroke="none" />
<path d="M 0 116 L 180 116 L 180 118 L 0 118 Z" fill="black" stroke="none" />
<path d="M 0 118 L 180 118 L 180 120 L 0 120 Z" fill="black" stroke="none" />
<path d="M 0 120 L 180 120 L 180 122 L 0 122 Z" fill="black" stroke="none" />
<path d="M 0 122 L 180 122 L 180 124 L 0 124 Z" fill="black" stroke="none" />
<path d="M 0 124 L 180 124 L 180 126 L 0 126 Z" fill="black" stroke="none" />
<path d="M 0 126 L 180 126 L 180 128 L 0 128 Z" fill="black" stroke="none" />
<path d="M 0 128 L 180 128 L 180 130 L 0 130 Z" fill="black" stroke="none" />
<path d="M 0 130 L 180 130 L 180 132 L 0 132 Z" fill="black" stroke="none" />
<path d="M 0 132 L 180 132 L 180 134 L 0 134 Z" fill="black" stroke="none" />
<path d="M 0 134 L 180 134 L 180 136 L 0 136 Z" fill="black" stroke="none" />
<path d="M 0 136 L 180 136 L 180 138 L 0 138 Z" fill="black" stroke="none" />
<path d="M 1 138 L 179 138 L 179 140 L 1 140 Z" fill="black" stroke="none" />
</svg>