<svg xmlns="http://www.w3.org/2000/svg" width="1024" height="1024" viewBox="0 0 1024 1024">
<rect width="100%" height="100%" fill="white" />
<path d="M 495 216 L 541 216 L 541 218 L 495 218 Z" fill="black" stroke="none" />
<path d="M 486 218 L 550 218 L 550 220 L 486 220 Z" fill="black" stroke="none" />
<path d="M 479 220 L 558 220 L 558 222 L 479 222 Z" fill="black" stroke="none" />
<path d="M 474 222 L 565 222 L 565 224 L 474 224 Z" fill="black" stroke="none" />
<path d="M 470 224 L 570 224 L 570 226 L 470 226 Z" fill="black" stroke="none" />
<path d="M 466 226 L 575 226 L 575 228 L 466 228 Z" fill="black" stroke="none" />
<path d="M 463 228 L 580 228 L 580 230 L 463 230 Z" fill="black" stroke="none" />
<path d="M 460 230 L 584 230 L 584 232 L 460 232 Z" fill="black" stroke="none" />
<path d="M 458 232 L 588 232 L 588 234 L 458 234 Z" fill="black" stroke="none" />
<path d="M 455 234 L 591 234 L 591 236 L 455 236 Z" fill="black" stroke="none" />
<path d="M 453 236 L 594 236 L 594 238 L 453 238 Z" fill="black" stroke="none" />
<path d="M 451 238 L 598 238 L 598 240 L 451 240 Z" fill="black" stroke="none" />
<path d="M 449 240 L 601 240 L 601 242 L 449 242 Z" fill="black" stroke="none" />
<path d="M 448 242 L 604 242 L 604 244 L 448 244 Z" fill="black" stroke="none" />
<path d="M 446 244 L 607 244 L 607 246 L 446 246 Z" fill="black" stroke="none" />
<path d="M 445 246 L 609 246 L 609 248 L 445 248 Z" fill="black" stroke="none" />
<path d="M 444 248 L 612 248 L 612 250 L 444 250 Z" fill="black" stroke="none" />
<path d="M 442 250 L 614 250 L 614 252 L 442 252 Z" fill="black" stroke="none" />
<path d="M 441 252 L 617 252 L 617 254 L 441 254 Z" fill="black" stroke="none" />
<path d="M 437 254 L 619 254 L 619 256 L 437 256 Z" fill="black" stroke="none" />
<path d="M 425 256 L 621 256 L 621 258 L 425 258 Z" fill="black" stroke="none" />
<path d="M 420 258 L 623 258 L 623 260 L 420 260 Z" fill="black" stroke="none" />
<path d="M 415 260 L 625 260 L 625 262 L 415 262 Z" fill="black" stroke="none" />
<path d="M 412 262 L 627 262 L 627 264 L 412 264 Z" fill="black" stroke="none" />
<path d="M 409 264 L 629 264 L 629 266 L 409 266 Z" fill="black" stroke="none" />
<path d="M 406 266 L 631 266 L 631 268 L 406 268 Z" fill="black" stroke="none" />
<path d="M 403 268 L 633 268 L 633 270 L 403 270 Z" fill="black" stroke="none" />
<path d="M 401 270 L 634 270 L 634 272 L 401 272 Z" fill="black" stroke="none" />
<path d="M 399 272 L 636 272 L 636 274 L 399 274 Z" fill="black" stroke="none" />
<path d="M 397 274 L 637 274 L 637 276 L 397 276 Z" fill="black" stroke="none" />
<path d="M 395 276 L 639 276 L 639 278 L 395 278 Z" fill="black" stroke="none" />
<path d="M 393 278 L 641 278 L 641 280 L 393 280 Z" fill="black" stroke="none" />
<path d="M 392 280 L 642 280 L 642 282 L 392 282 Z" fill="black" stroke="none" />
<path d="M 390 282 L 643 282 L 643 284 L 390 284 Z" fill="black" stroke="none" />
<path d="M 389 284 L 644 284 L 644 286 L 389 286 Z" fill="black" stroke="none" />
<path d="M 387 286 L 646 286 L 646 288 L 387 288 Z" fill="black" stroke="none" />
<path d="M 386 288 L 647 288 L 647 290 L 386 290 Z" fill="black" stroke="none" />
<path d="M 385 290 L 648 290 L 648 292 L 385 292 Z" fill="black" stroke="none" />
<path d="M 384 292 L 649 292 L 649 294 L 384 294 Z" fill="black" stroke="none" />
<path d="M 382 294 L 650 294 L 650 296 L 382 296 Z" fill="black" stroke="none" />
<path d="M 381 296 L 651 296 L 651 298 L 381 298 Z" fill="black" stroke="none" />
<path d="M 380 298 L 652 298 L 652 300 L 380 300 Z" fill="black" stroke="none" />
<path d="M 379 300 L 653 300 L 653 302 L 379 302 Z" fill="black" stroke="none" />
<path d="M 378 302 L 654 302 L 654 304 L 378 304 Z" fill="black" stroke="none" />
<path d="M 378 304 L 655 304 L 655 306 L 378 306 Z" fill="black" stroke="none" />
<path d="M 377 306 L 655 306 L 655 308 L 377 308 Z" fill="black" stroke="none" />
<path d="M 376 308 L 656 308 L 656 310 L 376 310 Z" fill="black" stroke="none" />
<path d="M 375 310 L 657 310 L 657 312 L 375 312 Z" fill="black" stroke="none" />
<path d="M 375 312 L 657 312 L 657 314 L 375 314 Z" fill="black" stroke="none" />
<path d="M 374 314 L 658 314 L 658 316 L 374 316 Z" fill="black" stroke="none" />
<path d="M 373 316 L 659 316 L 659 318 L 373 318 Z" fill="black" stroke="none" />
<path d="M 373 318 L 659 318 L 659 320 L 373 320 Z" fill="black" stroke="none" />
<path d="M 372 320 L 660 320 L 660 322 L 372 322 Z" fill="black" stroke="none" />
<path d="M 372 322 L 660 322 L 660 324 L 372 324 Z" fill="black" stroke="none" />
<path d="M 371 324 L 661 324 L 661 326 L 371 326 Z" fill="black" stroke="none" />
<path d="M 371 326 L 661 326 L 661 328 L 371 328 Z" fill="black" stroke="none" />
<path d="M 371 328 L 661 328 L 661 330 L 371 330 Z" fill="black" stroke="none" />
<path d="M 370 330 L 662 330 L 662 332 L 370 332 Z" fill="black" stroke="none" />
<path d="M 370 332 L 662 332 L 662 334 L 370 334 Z" fill="black" stroke="none" />
<path d="M 369 334 L 662 334 L 662 336 L 369 336 Z" fill="black" stroke="none" />
<path d="M 369 336 L 663 336 L 663 338 L 369 338 Z" fill="black" stroke="none" />
<path d="M 369 338 L 663 338 L 663 340 L 369 340 Z" fill="black" stroke="none" />
<path d="M 369 340 L 663 340 L 663 342 L 369 342 Z" fill="black" stroke="none" />
<path d="M 368 342 L 663 342 L 663 344 L 368 344 Z" fill="black" stroke="none" />
<path d="M 368 344 L 483 344 L 483 346 L 368 346 Z" fill="black" stroke="none" />
<path d="M 487 344 L 664 344 L 664 346 L 487 346 Z" fill="black" stroke="none" />
<path d="M 368 346 L 481 346 L 481 348 L 368 348 Z" fill="black" stroke="none" />
<path d="M 489 346 L 664 346 L 664 348 L 489 348 Z" fill="black" stroke="none" />
<path d="M 368 348 L 479 348 L 479 350 L 368 350 Z" fill="black" stroke="none" />
<path d="M 491 348 L 664 348 L 664 350 L 491 350 Z" fill="black" stroke="none" />
<path d="M 368 350 L 477 350 L 477 352 L 368 352 Z" fill="black" stroke="none" />
<path d="M 494 350 L 664 350 L 664 352 L 494 352 Z" fill="black" stroke="none" />
<path d="M 368 352 L 476 352 L 476 354 L 368 354 Z" fill="black" stroke="none" />
<path d="M 497 352 L 664 352 L 664 354 L 497 354 Z" fill="black" stroke="none" />
<path d="M 368 354 L 474 354 L 474 356 L 368 356 Z" fill="black" stroke="none" />
<path d="M 499 354 L 664 354 L 664 356 L 499 356 Z" fill="black" stroke="none" />
<path d="M 368 356 L 472 356 L 472 358 L 368 358 Z" fill="black" stroke="none" />
<path d="M 502 356 L 664 356 L 664 358 L 502 358 Z" fill="black" stroke="none" />
<path d="M 368 358 L 470 358 L 470 360 L 368 360 Z" fill="black" stroke="none" />
<path d="M 505 358 L 664 358 L 664 360 L 505 360 Z" fill="black" stroke="none" />
<path d="M 368 360 L 468 360 L 468 362 L 368 362 Z" fill="black" stroke="none" />
<path d="M 508 360 L 664 360 L 664 362 L 508 362 Z" fill="black" stroke="none" />
<path d="M 368 362 L 466 362 L 466 364 L 368 364 Z" fill="black" stroke="none" />
<path d="M 512 362 L 664 362 L 664 364 L 512 364 Z" fill="black" stroke="none" />
<path d="M 368 364 L 463 364 L 463 366 L 368 366 Z" fill="black" stroke="none" />
<path d="M 516 364 L 664 364 L 664 366 L 516 366 Z" fill="black" stroke="none" />
<path d="M 368 366 L 461 366 L 461 368 L 368 368 Z" fill="black" stroke="none" />
<path d="M 519 366 L 664 366 L 664 368 L 519 368 Z" fill="black" stroke="none" />
<path d="M 368 368 L 459 368 L 459 370 L 368 370 Z" fill="black" stroke="none" />
<path d="M 523 368 L 664 368 L 664 370 L 523 370 Z" fill="black" stroke="none" />
<path d="M 368 370 L 457 370 L 457 372 L 368 372 Z" fill="black" stroke="none" />
<path d="M 527 370 L 664 370 L 664 372 L 527 372 Z" fill="black" stroke="none" />
<path d="M 368 372 L 454 372 L 454 374 L 368 374 Z" fill="black" stroke="none" />
<path d="M 531 372 L 664 372 L 664 374 L 531 374 Z" fill="black" stroke="none" />
<path d="M 368 374 L 452 374 L 452 376 L 368 376 Z" fill="black" stroke="none" />
<path d="M 536 374 L 664 374 L 664 376 L 536 376 Z" fill="black" stroke="none" />
<path d="M 368 376 L 450 376 L 450 378 L 368 378 Z" fill="black" stroke="none" />
<path d="M 541 376 L 664 376 L 664 378 L 541 378 Z" fill="black" stroke="none" />
<path d="M 368 378 L 447 378 L 447 380 L 368 380 Z" fill="black" stroke="none" />
<path d="M 546 378 L 664 378 L 664 380 L 546 380 Z" fill="black" stroke="none" />
<path d="M 368 380 L 444 380 L 444 382 L 368 382 Z" fill="black" stroke="none" />
<path d="M 552 380 L 664 380 L 664 382 L 552 382 Z" fill="black" stroke="none" />
<path d="M 368 382 L 441 382 L 441 384 L 368 384 Z" fill="black" stroke="none" />
<path d="M 558 382 L 664 382 L 664 384 L 558 384 Z" fill="black" stroke="none" />
<path d="M 368 384 L 439 384 L 439 386 L 368 386 Z" fill="black" stroke="none" />
<path d="M 566 384 L 664 384 L 664 386 L 566 386 Z" fill="black" stroke="none" />
<path d="M 368 386 L 436 386 L 436 388 L 368 388 Z" fill="black" stroke="none" />
<path d="M 574 386 L 664 386 L 664 388 L 574 388 Z" fill="black" stroke="none" />
<path d="M 368 388 L 433 388 L 433 390 L 368 390 Z" fill="black" stroke="none" />
<path d="M 583 388 L 664 388 L 664 390 L 583 390 Z" fill="black" stroke="none" />
<path d="M 368 390 L 430 390 L 430 392 L 368 392 Z" fill="black" stroke="none" />
<path d="M 596 390 L 664 390 L 664 392 L 596 392 Z" fill="black" stroke="none" />
<path d="M 368 392 L 427 392 L 427 394 L 368 394 Z" fill="black" stroke="none" />
<path d="M 613 392 L 664 392 L 664 394 L 613 394 Z" fill="black" stroke="none" />
<path d="M 368 394 L 424 394 L 424 396 L 368 396 Z" fill="black" stroke="none" />
<path d="M 615 394 L 664 394 L 664 396 L 615 396 Z" fill="black" stroke="none" />
<path d="M 368 396 L 421 396 L 421 398 L 368 398 Z" fill="black" stroke="none" />
<path d="M 438 396 L 463 396 L 463 398 L 438 398 Z" fill="black" stroke="none" />
<path d="M 568 396 L 590 396 L 590 398 L 568 398 Z" fill="black" stroke="none" />
<path d="M 616 396 L 663 396 L 663 398 L 616 398 Z" fill="black" stroke="none" />
<path d="M 368 398 L 418 398 L 418 400 L 368 400 Z" fill="black" stroke="none" />
<path d="M 431 398 L 472 398 L 472 400 L 431 400 Z" fill="black" stroke="none" />
<path d="M 558 398 L 599 398 L 599 400 L 558 400 Z" fill="black" stroke="none" />
<path d="M 617 398 L 663 398 L 663 400 L 617 400 Z" fill="black" stroke="none" />
<path d="M 368 400 L 415 400 L 415 402 L 368 402 Z" fill="black" stroke="none" />
<path d="M 425 400 L 479 400 L 479 402 L 425 402 Z" fill="black" stroke="none" />
<path d="M 551 400 L 604 400 L 604 402 L 551 402 Z" fill="black" stroke="none" />
<path d="M 618 400 L 663 400 L 663 402 L 618 402 Z" fill="black" stroke="none" />
<path d="M 368 402 L 412 402 L 412 404 L 368 404 Z" fill="black" stroke="none" />
<path d="M 421 402 L 484 402 L 484 404 L 421 404 Z" fill="black" stroke="none" />
<path d="M 546 402 L 608 402 L 608 404 L 546 404 Z" fill="black" stroke="none" />
<path d="M 619 402 L 663 402 L 663 404 L 619 404 Z" fill="black" stroke="none" />
<path d="M 368 404 L 410 404 L 410 406 L 368 406 Z" fill="black" stroke="none" />
<path d="M 418 404 L 489 404 L 489 406 L 418 406 Z" fill="black" stroke="none" />
<path d="M 541 404 L 611 404 L 611 406 L 541 406 Z" fill="black" stroke="none" />
<path d="M 620 404 L 663 404 L 663 406 L 620 406 Z" fill="black" stroke="none" />
<path d="M 368 406 L 409 406 L 409 408 L 368 408 Z" fill="black" stroke="none" />
<path d="M 415 406 L 493 406 L 493 408 L 415 408 Z" fill="black" stroke="none" />
<path d="M 537 406 L 614 406 L 614 408 L 537 408 Z" fill="black" stroke="none" />
<path d="M 621 406 L 663 406 L 663 408 L 621 408 Z" fill="black" stroke="none" />
<path d="M 368 408 L 408 408 L 408 410 L 368 410 Z" fill="black" stroke="none" />
<path d="M 413 408 L 494 408 L 494 410 L 413 410 Z" fill="black" stroke="none" />
<path d="M 536 408 L 617 408 L 617 410 L 536 410 Z" fill="black" stroke="none" />
<path d="M 622 408 L 663 408 L 663 410 L 622 410 Z" fill="black" stroke="none" />
<path d="M 368 410 L 407 410 L 407 412 L 368 412 Z" fill="black" stroke="none" />
<path d="M 411 410 L 494 410 L 494 412 L 411 412 Z" fill="black" stroke="none" />
<path d="M 536 410 L 619 410 L 619 412 L 536 412 Z" fill="black" stroke="none" />
<path d="M 623 410 L 663 410 L 663 412 L 623 412 Z" fill="black" stroke="none" />
<path d="M 368 412 L 406 412 L 406 414 L 368 414 Z" fill="black" stroke="none" />
<path d="M 409 412 L 494 412 L 494 414 L 409 414 Z" fill="black" stroke="none" />
<path d="M 536 412 L 620 412 L 620 414 L 536 414 Z" fill="black" stroke="none" />
<path d="M 623 412 L 663 412 L 663 414 L 623 414 Z" fill="black" stroke="none" />
<path d="M 368 414 L 405 414 L 405 416 L 368 416 Z" fill="black" stroke="none" />
<path d="M 408 414 L 494 414 L 494 416 L 408 416 Z" fill="black" stroke="none" />
<path d="M 536 414 L 622 414 L 622 416 L 536 416 Z" fill="black" stroke="none" />
<path d="M 624 414 L 663 414 L 663 416 L 624 416 Z" fill="black" stroke="none" />
<path d="M 368 416 L 404 416 L 404 418 L 368 418 Z" fill="black" stroke="none" />
<path d="M 407 416 L 432 416 L 432 418 L 407 418 Z" fill="black" stroke="none" />
<path d="M 453 416 L 494 416 L 494 418 L 453 418 Z" fill="black" stroke="none" />
<path d="M 536 416 L 577 416 L 577 418 L 536 418 Z" fill="black" stroke="none" />
<path d="M 597 416 L 624 416 L 624 418 L 597 418 Z" fill="black" stroke="none" />
<path d="M 625 416 L 663 416 L 663 418 L 625 418 Z" fill="black" stroke="none" />
<path d="M 368 418 L 403 418 L 403 420 L 368 420 Z" fill="black" stroke="none" />
<path d="M 405 418 L 422 418 L 422 420 L 405 420 Z" fill="black" stroke="none" />
<path d="M 464 418 L 494 418 L 494 420 L 464 420 Z" fill="black" stroke="none" />
<path d="M 536 418 L 566 418 L 566 420 L 536 420 Z" fill="black" stroke="none" />
<path d="M 608 418 L 625 418 L 625 420 L 608 420 Z" fill="black" stroke="none" />
<path d="M 626 418 L 662 418 L 662 420 L 626 420 Z" fill="black" stroke="none" />
<path d="M 368 420 L 402 420 L 402 422 L 368 422 Z" fill="black" stroke="none" />
<path d="M 404 420 L 416 420 L 416 422 L 404 422 Z" fill="black" stroke="none" />
<path d="M 471 420 L 494 420 L 494 422 L 471 422 Z" fill="black" stroke="none" />
<path d="M 536 420 L 559 420 L 559 422 L 536 422 Z" fill="black" stroke="none" />
<path d="M 614 420 L 662 420 L 662 422 L 614 422 Z" fill="black" stroke="none" />
<path d="M 368 422 L 401 422 L 401 424 L 368 424 Z" fill="black" stroke="none" />
<path d="M 403 422 L 410 422 L 410 424 L 403 424 Z" fill="black" stroke="none" />
<path d="M 477 422 L 494 422 L 494 424 L 477 424 Z" fill="black" stroke="none" />
<path d="M 536 422 L 553 422 L 553 424 L 536 424 Z" fill="black" stroke="none" />
<path d="M 620 422 L 662 422 L 662 424 L 620 424 Z" fill="black" stroke="none" />
<path d="M 367 424 L 400 424 L 400 426 L 367 426 Z" fill="black" stroke="none" />
<path d="M 404 424 L 406 424 L 406 426 L 404 426 Z" fill="black" stroke="none" />
<path d="M 482 424 L 494 424 L 494 426 L 482 426 Z" fill="black" stroke="none" />
<path d="M 536 424 L 548 424 L 548 426 L 536 426 Z" fill="black" stroke="none" />
<path d="M 624 424 L 627 424 L 627 426 L 624 426 Z" fill="black" stroke="none" />
<path d="M 629 424 L 663 424 L 663 426 L 629 426 Z" fill="black" stroke="none" />
<path d="M 357 426 L 399 426 L 399 428 L 357 428 Z" fill="black" stroke="none" />
<path d="M 487 426 L 494 426 L 494 428 L 487 428 Z" fill="black" stroke="none" />
<path d="M 536 426 L 542 426 L 542 428 L 536 428 Z" fill="black" stroke="none" />
<path d="M 630 426 L 672 426 L 672 428 L 630 428 Z" fill="black" stroke="none" />
<path d="M 352 428 L 399 428 L 399 430 L 352 430 Z" fill="black" stroke="none" />
<path d="M 631 428 L 678 428 L 678 430 L 631 430 Z" fill="black" stroke="none" />
<path d="M 348 430 L 398 430 L 398 432 L 348 432 Z" fill="black" stroke="none" />
<path d="M 632 430 L 682 430 L 682 432 L 632 432 Z" fill="black" stroke="none" />
<path d="M 345 432 L 397 432 L 397 434 L 345 434 Z" fill="black" stroke="none" />
<path d="M 633 432 L 685 432 L 685 434 L 633 434 Z" fill="black" stroke="none" />
<path d="M 343 434 L 396 434 L 396 436 L 343 436 Z" fill="black" stroke="none" />
<path d="M 634 434 L 687 434 L 687 436 L 634 436 Z" fill="black" stroke="none" />
<path d="M 341 436 L 396 436 L 396 438 L 341 438 Z" fill="black" stroke="none" />
<path d="M 635 436 L 690 436 L 690 438 L 635 438 Z" fill="black" stroke="none" />
<path d="M 339 438 L 396 438 L 396 440 L 339 440 Z" fill="black" stroke="none" />
<path d="M 635 438 L 692 438 L 692 440 L 635 440 Z" fill="black" stroke="none" />
<path d="M 337 440 L 396 440 L 396 442 L 337 442 Z" fill="black" stroke="none" />
<path d="M 635 440 L 693 440 L 693 442 L 635 442 Z" fill="black" stroke="none" />
<path d="M 336 442 L 396 442 L 396 444 L 336 444 Z" fill="black" stroke="none" />
<path d="M 424 442 L 426 442 L 426 444 L 424 444 Z" fill="black" stroke="none" />
<path d="M 605 442 L 607 442 L 607 444 L 605 444 Z" fill="black" stroke="none" />
<path d="M 634 442 L 694 442 L 694 444 L 634 444 Z" fill="black" stroke="none" />
<path d="M 335 444 L 396 444 L 396 446 L 335 446 Z" fill="black" stroke="none" />
<path d="M 422 444 L 429 444 L 429 446 L 422 446 Z" fill="black" stroke="none" />
<path d="M 476 444 L 482 444 L 482 446 L 476 446 Z" fill="black" stroke="none" />
<path d="M 548 444 L 554 444 L 554 446 L 548 446 Z" fill="black" stroke="none" />
<path d="M 601 444 L 609 444 L 609 446 L 601 446 Z" fill="black" stroke="none" />
<path d="M 634 444 L 696 444 L 696 446 L 634 446 Z" fill="black" stroke="none" />
<path d="M 334 446 L 396 446 L 396 448 L 334 448 Z" fill="black" stroke="none" />
<path d="M 420 446 L 433 446 L 433 448 L 420 448 Z" fill="black" stroke="none" />
<path d="M 472 446 L 484 446 L 484 448 L 472 448 Z" fill="black" stroke="none" />
<path d="M 547 446 L 558 446 L 558 448 L 547 448 Z" fill="black" stroke="none" />
<path d="M 598 446 L 611 446 L 611 448 L 598 448 Z" fill="black" stroke="none" />
<path d="M 634 446 L 697 446 L 697 448 L 634 448 Z" fill="black" stroke="none" />
<path d="M 333 448 L 396 448 L 396 450 L 333 450 Z" fill="black" stroke="none" />
<path d="M 418 448 L 437 448 L 437 450 L 418 450 Z" fill="black" stroke="none" />
<path d="M 468 448 L 485 448 L 485 450 L 468 450 Z" fill="black" stroke="none" />
<path d="M 545 448 L 562 448 L 562 450 L 545 450 Z" fill="black" stroke="none" />
<path d="M 593 448 L 613 448 L 613 450 L 593 450 Z" fill="black" stroke="none" />
<path d="M 634 448 L 698 448 L 698 450 L 634 450 Z" fill="black" stroke="none" />
<path d="M 332 450 L 396 450 L 396 452 L 332 452 Z" fill="black" stroke="none" />
<path d="M 415 450 L 444 450 L 444 452 L 415 452 Z" fill="black" stroke="none" />
<path d="M 461 450 L 487 450 L 487 452 L 461 452 Z" fill="black" stroke="none" />
<path d="M 544 450 L 569 450 L 569 452 L 544 452 Z" fill="black" stroke="none" />
<path d="M 587 450 L 615 450 L 615 452 L 587 452 Z" fill="black" stroke="none" />
<path d="M 634 450 L 698 450 L 698 452 L 634 452 Z" fill="black" stroke="none" />
<path d="M 331 452 L 362 452 L 362 454 L 331 454 Z" fill="black" stroke="none" />
<path d="M 371 452 L 397 452 L 397 454 L 371 454 Z" fill="black" stroke="none" />
<path d="M 413 452 L 488 452 L 488 454 L 413 454 Z" fill="black" stroke="none" />
<path d="M 542 452 L 617 452 L 617 454 L 542 454 Z" fill="black" stroke="none" />
<path d="M 634 452 L 659 452 L 659 454 L 634 454 Z" fill="black" stroke="none" />
<path d="M 669 452 L 699 452 L 699 454 L 669 454 Z" fill="black" stroke="none" />
<path d="M 331 454 L 359 454 L 359 456 L 331 456 Z" fill="black" stroke="none" />
<path d="M 371 454 L 397 454 L 397 456 L 371 456 Z" fill="black" stroke="none" />
<path d="M 413 454 L 489 454 L 489 456 L 413 456 Z" fill="black" stroke="none" />
<path d="M 542 454 L 617 454 L 617 456 L 542 456 Z" fill="black" stroke="none" />
<path d="M 634 454 L 659 454 L 659 456 L 634 456 Z" fill="black" stroke="none" />
<path d="M 671 454 L 700 454 L 700 456 L 671 456 Z" fill="black" stroke="none" />
<path d="M 330 456 L 358 456 L 358 458 L 330 458 Z" fill="black" stroke="none" />
<path d="M 371 456 L 397 456 L 397 458 L 371 458 Z" fill="black" stroke="none" />
<path d="M 415 456 L 487 456 L 487 458 L 415 458 Z" fill="black" stroke="none" />
<path d="M 543 456 L 615 456 L 615 458 L 543 458 Z" fill="black" stroke="none" />
<path d="M 633 456 L 659 456 L 659 458 L 633 458 Z" fill="black" stroke="none" />
<path d="M 673 456 L 700 456 L 700 458 L 673 458 Z" fill="black" stroke="none" />
<path d="M 330 458 L 357 458 L 357 460 L 330 460 Z" fill="black" stroke="none" />
<path d="M 372 458 L 397 458 L 397 460 L 372 460 Z" fill="black" stroke="none" />
<path d="M 417 458 L 485 458 L 485 460 L 417 460 Z" fill="black" stroke="none" />
<path d="M 545 458 L 613 458 L 613 460 L 545 460 Z" fill="black" stroke="none" />
<path d="M 633 458 L 659 458 L 659 460 L 633 460 Z" fill="black" stroke="none" />
<path d="M 674 458 L 701 458 L 701 460 L 674 460 Z" fill="black" stroke="none" />
<path d="M 329 460 L 356 460 L 356 462 L 329 462 Z" fill="black" stroke="none" />
<path d="M 372 460 L 397 460 L 397 462 L 372 462 Z" fill="black" stroke="none" />
<path d="M 419 460 L 483 460 L 483 462 L 419 462 Z" fill="black" stroke="none" />
<path d="M 547 460 L 611 460 L 611 462 L 547 462 Z" fill="black" stroke="none" />
<path d="M 633 460 L 659 460 L 659 462 L 633 462 Z" fill="black" stroke="none" />
<path d="M 675 460 L 701 460 L 701 462 L 675 462 Z" fill="black" stroke="none" />
<path d="M 329 462 L 355 462 L 355 464 L 329 464 Z" fill="black" stroke="none" />
<path d="M 372 462 L 397 462 L 397 464 L 372 464 Z" fill="black" stroke="none" />
<path d="M 422 462 L 481 462 L 481 464 L 422 464 Z" fill="black" stroke="none" />
<path d="M 550 462 L 608 462 L 608 464 L 550 464 Z" fill="black" stroke="none" />
<path d="M 633 462 L 659 462 L 659 464 L 633 464 Z" fill="black" stroke="none" />
<path d="M 675 462 L 701 462 L 701 464 L 675 464 Z" fill="black" stroke="none" />
<path d="M 329 464 L 355 464 L 355 466 L 329 466 Z" fill="black" stroke="none" />
<path d="M 372 464 L 398 464 L 398 466 L 372 466 Z" fill="black" stroke="none" />
<path d="M 425 464 L 478 464 L 478 466 L 425 466 Z" fill="black" stroke="none" />
<path d="M 552 464 L 606 464 L 606 466 L 552 466 Z" fill="black" stroke="none" />
<path d="M 633 464 L 658 464 L 658 466 L 633 466 Z" fill="black" stroke="none" />
<path d="M 676 464 L 701 464 L 701 466 L 676 466 Z" fill="black" stroke="none" />
<path d="M 329 466 L 355 466 L 355 468 L 329 468 Z" fill="black" stroke="none" />
<path d="M 372 466 L 398 466 L 398 468 L 372 468 Z" fill="black" stroke="none" />
<path d="M 428 466 L 475 466 L 475 468 L 428 468 Z" fill="black" stroke="none" />
<path d="M 556 466 L 602 466 L 602 468 L 556 468 Z" fill="black" stroke="none" />
<path d="M 632 466 L 658 466 L 658 468 L 632 468 Z" fill="black" stroke="none" />
<path d="M 676 466 L 701 466 L 701 468 L 676 468 Z" fill="black" stroke="none" />
<path d="M 329 468 L 354 468 L 354 470 L 329 470 Z" fill="black" stroke="none" />
<path d="M 373 468 L 398 468 L 398 470 L 373 470 Z" fill="black" stroke="none" />
<path d="M 432 468 L 471 468 L 471 470 L 432 470 Z" fill="black" stroke="none" />
<path d="M 560 468 L 598 468 L 598 470 L 560 470 Z" fill="black" stroke="none" />
<path d="M 632 468 L 658 468 L 658 470 L 632 470 Z" fill="black" stroke="none" />
<path d="M 676 468 L 702 468 L 702 470 L 676 470 Z" fill="black" stroke="none" />
<path d="M 329 470 L 354 470 L 354 472 L 329 472 Z" fill="black" stroke="none" />
<path d="M 373 470 L 398 470 L 398 472 L 373 472 Z" fill="black" stroke="none" />
<path d="M 438 470 L 465 470 L 465 472 L 438 472 Z" fill="black" stroke="none" />
<path d="M 565 470 L 593 470 L 593 472 L 565 472 Z" fill="black" stroke="none" />
<path d="M 632 470 L 658 470 L 658 472 L 632 472 Z" fill="black" stroke="none" />
<path d="M 676 470 L 702 470 L 702 472 L 676 472 Z" fill="black" stroke="none" />
<path d="M 329 472 L 354 472 L 354 474 L 329 474 Z" fill="black" stroke="none" />
<path d="M 373 472 L 399 472 L 399 474 L 373 474 Z" fill="black" stroke="none" />
<path d="M 632 472 L 658 472 L 658 474 L 632 474 Z" fill="black" stroke="none" />
<path d="M 676 472 L 702 472 L 702 474 L 676 474 Z" fill="black" stroke="none" />
<path d="M 329 474 L 355 474 L 355 476 L 329 476 Z" fill="black" stroke="none" />
<path d="M 373 474 L 399 474 L 399 476 L 373 476 Z" fill="black" stroke="none" />
<path d="M 631 474 L 657 474 L 657 476 L 631 476 Z" fill="black" stroke="none" />
<path d="M 676 474 L 702 474 L 702 476 L 676 476 Z" fill="black" stroke="none" />
<path d="M 329 476 L 355 476 L 355 478 L 329 478 Z" fill="black" stroke="none" />
<path d="M 373 476 L 399 476 L 399 478 L 373 478 Z" fill="black" stroke="none" />
<path d="M 631 476 L 657 476 L 657 478 L 631 478 Z" fill="black" stroke="none" />
<path d="M 676 476 L 701 476 L 701 478 L 676 478 Z" fill="black" stroke="none" />
<path d="M 329 478 L 355 478 L 355 480 L 329 480 Z" fill="black" stroke="none" />
<path d="M 374 478 L 399 478 L 399 480 L 374 480 Z" fill="black" stroke="none" />
<path d="M 631 478 L 657 478 L 657 480 L 631 480 Z" fill="black" stroke="none" />
<path d="M 676 478 L 701 478 L 701 480 L 676 480 Z" fill="black" stroke="none" />
<path d="M 329 480 L 355 480 L 355 482 L 329 482 Z" fill="black" stroke="none" />
<path d="M 374 480 L 399 480 L 399 482 L 374 482 Z" fill="black" stroke="none" />
<path d="M 631 480 L 657 480 L 657 482 L 631 482 Z" fill="black" stroke="none" />
<path d="M 675 480 L 701 480 L 701 482 L 675 482 Z" fill="black" stroke="none" />
<path d="M 329 482 L 356 482 L 356 484 L 329 484 Z" fill="black" stroke="none" />
<path d="M 374 482 L 400 482 L 400 484 L 374 484 Z" fill="black" stroke="none" />
<path d="M 631 482 L 656 482 L 656 484 L 631 484 Z" fill="black" stroke="none" />
<path d="M 675 482 L 701 482 L 701 484 L 675 484 Z" fill="black" stroke="none" />
<path d="M 330 484 L 356 484 L 356 486 L 330 486 Z" fill="black" stroke="none" />
<path d="M 374 484 L 400 484 L 400 486 L 374 486 Z" fill="black" stroke="none" />
<path d="M 630 484 L 656 484 L 656 486 L 630 486 Z" fill="black" stroke="none" />
<path d="M 675 484 L 701 484 L 701 486 L 675 486 Z" fill="black" stroke="none" />
<path d="M 330 486 L 356 486 L 356 488 L 330 488 Z" fill="black" stroke="none" />
<path d="M 375 486 L 400 486 L 400 488 L 375 488 Z" fill="black" stroke="none" />
<path d="M 630 486 L 656 486 L 656 488 L 630 488 Z" fill="black" stroke="none" />
<path d="M 674 486 L 700 486 L 700 488 L 674 488 Z" fill="black" stroke="none" />
<path d="M 330 488 L 357 488 L 357 490 L 330 490 Z" fill="black" stroke="none" />
<path d="M 375 488 L 401 488 L 401 490 L 375 490 Z" fill="black" stroke="none" />
<path d="M 630 488 L 656 488 L 656 490 L 630 490 Z" fill="black" stroke="none" />
<path d="M 674 488 L 700 488 L 700 490 L 674 490 Z" fill="black" stroke="none" />
<path d="M 331 490 L 358 490 L 358 492 L 331 492 Z" fill="black" stroke="none" />
<path d="M 375 490 L 401 490 L 401 492 L 375 492 Z" fill="black" stroke="none" />
<path d="M 630 490 L 655 490 L 655 492 L 630 492 Z" fill="black" stroke="none" />
<path d="M 673 490 L 700 490 L 700 492 L 673 492 Z" fill="black" stroke="none" />
<path d="M 331 492 L 358 492 L 358 494 L 331 494 Z" fill="black" stroke="none" />
<path d="M 375 492 L 401 492 L 401 494 L 375 494 Z" fill="black" stroke="none" />
<path d="M 629 492 L 655 492 L 655 494 L 629 494 Z" fill="black" stroke="none" />
<path d="M 672 492 L 699 492 L 699 494 L 672 494 Z" fill="black" stroke="none" />
<path d="M 332 494 L 359 494 L 359 496 L 332 496 Z" fill="black" stroke="none" />
<path d="M 376 494 L 401 494 L 401 496 L 376 496 Z" fill="black" stroke="none" />
<path d="M 629 494 L 655 494 L 655 496 L 629 496 Z" fill="black" stroke="none" />
<path d="M 672 494 L 699 494 L 699 496 L 672 496 Z" fill="black" stroke="none" />
<path d="M 332 496 L 360 496 L 360 498 L 332 498 Z" fill="black" stroke="none" />
<path d="M 376 496 L 402 496 L 402 498 L 376 498 Z" fill="black" stroke="none" />
<path d="M 629 496 L 655 496 L 655 498 L 629 498 Z" fill="black" stroke="none" />
<path d="M 671 496 L 698 496 L 698 498 L 671 498 Z" fill="black" stroke="none" />
<path d="M 333 498 L 361 498 L 361 500 L 333 500 Z" fill="black" stroke="none" />
<path d="M 376 498 L 402 498 L 402 500 L 376 500 Z" fill="black" stroke="none" />
<path d="M 628 498 L 654 498 L 654 500 L 628 500 Z" fill="black" stroke="none" />
<path d="M 670 498 L 697 498 L 697 500 L 670 500 Z" fill="black" stroke="none" />
<path d="M 334 500 L 361 500 L 361 502 L 334 502 Z" fill="black" stroke="none" />
<path d="M 376 500 L 402 500 L 402 502 L 376 502 Z" fill="black" stroke="none" />
<path d="M 628 500 L 654 500 L 654 502 L 628 502 Z" fill="black" stroke="none" />
<path d="M 669 500 L 697 500 L 697 502 L 669 502 Z" fill="black" stroke="none" />
<path d="M 334 502 L 363 502 L 363 504 L 334 504 Z" fill="black" stroke="none" />
<path d="M 377 502 L 403 502 L 403 504 L 377 504 Z" fill="black" stroke="none" />
<path d="M 628 502 L 654 502 L 654 504 L 628 504 Z" fill="black" stroke="none" />
<path d="M 668 502 L 696 502 L 696 504 L 668 504 Z" fill="black" stroke="none" />
<path d="M 335 504 L 364 504 L 364 506 L 335 506 Z" fill="black" stroke="none" />
<path d="M 377 504 L 403 504 L 403 506 L 377 506 Z" fill="black" stroke="none" />
<path d="M 628 504 L 653 504 L 653 506 L 628 506 Z" fill="black" stroke="none" />
<path d="M 667 504 L 695 504 L 695 506 L 667 506 Z" fill="black" stroke="none" />
<path d="M 336 506 L 365 506 L 365 508 L 336 508 Z" fill="black" stroke="none" />
<path d="M 377 506 L 403 506 L 403 508 L 377 508 Z" fill="black" stroke="none" />
<path d="M 627 506 L 653 506 L 653 508 L 627 508 Z" fill="black" stroke="none" />
<path d="M 666 506 L 694 506 L 694 508 L 666 508 Z" fill="black" stroke="none" />
<path d="M 337 508 L 367 508 L 367 510 L 337 510 Z" fill="black" stroke="none" />
<path d="M 378 508 L 403 508 L 403 510 L 378 510 Z" fill="black" stroke="none" />
<path d="M 498 508 L 501 508 L 501 510 L 498 510 Z" fill="black" stroke="none" />
<path d="M 529 508 L 532 508 L 532 510 L 529 510 Z" fill="black" stroke="none" />
<path d="M 627 508 L 653 508 L 653 510 L 627 510 Z" fill="black" stroke="none" />
<path d="M 664 508 L 694 508 L 694 510 L 664 510 Z" fill="black" stroke="none" />
<path d="M 338 510 L 368 510 L 368 512 L 338 512 Z" fill="black" stroke="none" />
<path d="M 378 510 L 404 510 L 404 512 L 378 512 Z" fill="black" stroke="none" />
<path d="M 495 510 L 506 510 L 506 512 L 495 512 Z" fill="black" stroke="none" />
<path d="M 524 510 L 535 510 L 535 512 L 524 512 Z" fill="black" stroke="none" />
<path d="M 627 510 L 652 510 L 652 512 L 627 512 Z" fill="black" stroke="none" />
<path d="M 662 510 L 693 510 L 693 512 L 662 512 Z" fill="black" stroke="none" />
<path d="M 339 512 L 371 512 L 371 514 L 339 514 Z" fill="black" stroke="none" />
<path d="M 378 512 L 404 512 L 404 514 L 378 514 Z" fill="black" stroke="none" />
<path d="M 494 512 L 509 512 L 509 514 L 494 514 Z" fill="black" stroke="none" />
<path d="M 521 512 L 537 512 L 537 514 L 521 514 Z" fill="black" stroke="none" />
<path d="M 626 512 L 652 512 L 652 514 L 626 514 Z" fill="black" stroke="none" />
<path d="M 660 512 L 692 512 L 692 514 L 660 514 Z" fill="black" stroke="none" />
<path d="M 340 514 L 374 514 L 374 516 L 340 516 Z" fill="black" stroke="none" />
<path d="M 378 514 L 404 514 L 404 516 L 378 516 Z" fill="black" stroke="none" />
<path d="M 494 514 L 510 514 L 510 516 L 494 516 Z" fill="black" stroke="none" />
<path d="M 520 514 L 537 514 L 537 516 L 520 516 Z" fill="black" stroke="none" />
<path d="M 626 514 L 652 514 L 652 516 L 626 516 Z" fill="black" stroke="none" />
<path d="M 657 514 L 691 514 L 691 516 L 657 516 Z" fill="black" stroke="none" />
<path d="M 341 516 L 405 516 L 405 518 L 341 518 Z" fill="black" stroke="none" />
<path d="M 494 516 L 511 516 L 511 518 L 494 518 Z" fill="black" stroke="none" />
<path d="M 519 516 L 536 516 L 536 518 L 519 518 Z" fill="black" stroke="none" />
<path d="M 625 516 L 689 516 L 689 518 L 625 518 Z" fill="black" stroke="none" />
<path d="M 342 518 L 405 518 L 405 520 L 342 520 Z" fill="black" stroke="none" />
<path d="M 495 518 L 511 518 L 511 520 L 495 520 Z" fill="black" stroke="none" />
<path d="M 520 518 L 535 518 L 535 520 L 520 520 Z" fill="black" stroke="none" />
<path d="M 625 518 L 688 518 L 688 520 L 625 520 Z" fill="black" stroke="none" />
<path d="M 344 520 L 406 520 L 406 522 L 344 522 Z" fill="black" stroke="none" />
<path d="M 498 520 L 508 520 L 508 522 L 498 522 Z" fill="black" stroke="none" />
<path d="M 522 520 L 533 520 L 533 522 L 522 522 Z" fill="black" stroke="none" />
<path d="M 625 520 L 687 520 L 687 522 L 625 522 Z" fill="black" stroke="none" />
<path d="M 345 522 L 406 522 L 406 524 L 345 524 Z" fill="black" stroke="none" />
<path d="M 624 522 L 685 522 L 685 524 L 624 524 Z" fill="black" stroke="none" />
<path d="M 347 524 L 407 524 L 407 526 L 347 526 Z" fill="black" stroke="none" />
<path d="M 624 524 L 684 524 L 684 526 L 624 526 Z" fill="black" stroke="none" />
<path d="M 349 526 L 407 526 L 407 528 L 349 528 Z" fill="black" stroke="none" />
<path d="M 623 526 L 682 526 L 682 528 L 623 528 Z" fill="black" stroke="none" />
<path d="M 351 528 L 408 528 L 408 530 L 351 530 Z" fill="black" stroke="none" />
<path d="M 623 528 L 680 528 L 680 530 L 623 530 Z" fill="black" stroke="none" />
<path d="M 352 530 L 408 530 L 408 532 L 352 532 Z" fill="black" stroke="none" />
<path d="M 622 530 L 678 530 L 678 532 L 622 532 Z" fill="black" stroke="none" />
<path d="M 355 532 L 409 532 L 409 534 L 355 534 Z" fill="black" stroke="none" />
<path d="M 622 532 L 675 532 L 675 534 L 622 534 Z" fill="black" stroke="none" />
<path d="M 357 534 L 409 534 L 409 536 L 357 536 Z" fill="black" stroke="none" />
<path d="M 621 534 L 673 534 L 673 536 L 621 536 Z" fill="black" stroke="none" />
<path d="M 360 536 L 410 536 L 410 538 L 360 538 Z" fill="black" stroke="none" />
<path d="M 620 536 L 670 536 L 670 538 L 620 538 Z" fill="black" stroke="none" />
<path d="M 364 538 L 411 538 L 411 540 L 364 540 Z" fill="black" stroke="none" />
<path d="M 620 538 L 667 538 L 667 540 L 620 540 Z" fill="black" stroke="none" />
<path d="M 368 540 L 411 540 L 411 542 L 368 542 Z" fill="black" stroke="none" />
<path d="M 619 540 L 662 540 L 662 542 L 619 542 Z" fill="black" stroke="none" />
<path d="M 377 542 L 412 542 L 412 544 L 377 544 Z" fill="black" stroke="none" />
<path d="M 502 542 L 512 542 L 512 544 L 502 544 Z" fill="black" stroke="none" />
<path d="M 519 542 L 529 542 L 529 544 L 519 544 Z" fill="black" stroke="none" />
<path d="M 618 542 L 652 542 L 652 544 L 618 544 Z" fill="black" stroke="none" />
<path d="M 386 544 L 413 544 L 413 546 L 386 546 Z" fill="black" stroke="none" />
<path d="M 497 544 L 534 544 L 534 546 L 497 546 Z" fill="black" stroke="none" />
<path d="M 617 544 L 645 544 L 645 546 L 617 546 Z" fill="black" stroke="none" />
<path d="M 386 546 L 414 546 L 414 548 L 386 548 Z" fill="black" stroke="none" />
<path d="M 493 546 L 537 546 L 537 548 L 493 548 Z" fill="black" stroke="none" />
<path d="M 616 546 L 644 546 L 644 548 L 616 548 Z" fill="black" stroke="none" />
<path d="M 387 548 L 415 548 L 415 550 L 387 550 Z" fill="black" stroke="none" />
<path d="M 490 548 L 540 548 L 540 550 L 490 550 Z" fill="black" stroke="none" />
<path d="M 615 548 L 644 548 L 644 550 L 615 550 Z" fill="black" stroke="none" />
<path d="M 388 550 L 416 550 L 416 552 L 388 552 Z" fill="black" stroke="none" />
<path d="M 488 550 L 543 550 L 543 552 L 488 552 Z" fill="black" stroke="none" />
<path d="M 614 550 L 643 550 L 643 552 L 614 552 Z" fill="black" stroke="none" />
<path d="M 389 552 L 417 552 L 417 554 L 389 554 Z" fill="black" stroke="none" />
<path d="M 484 552 L 547 552 L 547 554 L 484 554 Z" fill="black" stroke="none" />
<path d="M 613 552 L 642 552 L 642 554 L 613 554 Z" fill="black" stroke="none" />
<path d="M 390 554 L 419 554 L 419 556 L 390 556 Z" fill="black" stroke="none" />
<path d="M 477 554 L 554 554 L 554 556 L 477 556 Z" fill="black" stroke="none" />
<path d="M 612 554 L 641 554 L 641 556 L 612 556 Z" fill="black" stroke="none" />
<path d="M 391 556 L 420 556 L 420 558 L 391 558 Z" fill="black" stroke="none" />
<path d="M 475 556 L 556 556 L 556 558 L 475 558 Z" fill="black" stroke="none" />
<path d="M 610 556 L 640 556 L 640 558 L 610 558 Z" fill="black" stroke="none" />
<path d="M 392 558 L 421 558 L 421 560 L 392 560 Z" fill="black" stroke="none" />
<path d="M 476 558 L 554 558 L 554 560 L 476 560 Z" fill="black" stroke="none" />
<path d="M 609 558 L 639 558 L 639 560 L 609 560 Z" fill="black" stroke="none" />
<path d="M 393 560 L 423 560 L 423 562 L 393 562 Z" fill="black" stroke="none" />
<path d="M 478 560 L 552 560 L 552 562 L 478 562 Z" fill="black" stroke="none" />
<path d="M 608 560 L 638 560 L 638 562 L 608 562 Z" fill="black" stroke="none" />
<path d="M 394 562 L 424 562 L 424 564 L 394 564 Z" fill="black" stroke="none" />
<path d="M 481 562 L 550 562 L 550 564 L 481 564 Z" fill="black" stroke="none" />
<path d="M 606 562 L 637 562 L 637 564 L 606 564 Z" fill="black" stroke="none" />
<path d="M 395 564 L 426 564 L 426 566 L 395 566 Z" fill="black" stroke="none" />
<path d="M 483 564 L 547 564 L 547 566 L 483 566 Z" fill="black" stroke="none" />
<path d="M 605 564 L 636 564 L 636 566 L 605 566 Z" fill="black" stroke="none" />
<path d="M 396 566 L 427 566 L 427 568 L 396 568 Z" fill="black" stroke="none" />
<path d="M 486 566 L 545 566 L 545 568 L 486 568 Z" fill="black" stroke="none" />
<path d="M 603 566 L 634 566 L 634 568 L 603 568 Z" fill="black" stroke="none" />
<path d="M 397 568 L 429 568 L 429 570 L 397 570 Z" fill="black" stroke="none" />
<path d="M 489 568 L 542 568 L 542 570 L 489 570 Z" fill="black" stroke="none" />
<path d="M 601 568 L 633 568 L 633 570 L 601 570 Z" fill="black" stroke="none" />
<path d="M 399 570 L 431 570 L 431 572 L 399 572 Z" fill="black" stroke="none" />
<path d="M 493 570 L 538 570 L 538 572 L 493 572 Z" fill="black" stroke="none" />
<path d="M 600 570 L 632 570 L 632 572 L 600 572 Z" fill="black" stroke="none" />
<path d="M 400 572 L 433 572 L 433 574 L 400 574 Z" fill="black" stroke="none" />
<path d="M 498 572 L 534 572 L 534 574 L 498 574 Z" fill="black" stroke="none" />
<path d="M 598 572 L 630 572 L 630 574 L 598 574 Z" fill="black" stroke="none" />
<path d="M 401 574 L 434 574 L 434 576 L 401 576 Z" fill="black" stroke="none" />
<path d="M 507 574 L 525 574 L 525 576 L 507 576 Z" fill="black" stroke="none" />
<path d="M 596 574 L 629 574 L 629 576 L 596 576 Z" fill="black" stroke="none" />
<path d="M 403 576 L 436 576 L 436 578 L 403 578 Z" fill="black" stroke="none" />
<path d="M 594 576 L 628 576 L 628 578 L 594 578 Z" fill="black" stroke="none" />
<path d="M 404 578 L 438 578 L 438 580 L 404 580 Z" fill="black" stroke="none" />
<path d="M 592 578 L 626 578 L 626 580 L 592 580 Z" fill="black" stroke="none" />
<path d="M 406 580 L 441 580 L 441 582 L 406 582 Z" fill="black" stroke="none" />
<path d="M 590 580 L 625 580 L 625 582 L 590 582 Z" fill="black" stroke="none" />
<path d="M 407 582 L 443 582 L 443 584 L 407 584 Z" fill="black" stroke="none" />
<path d="M 588 582 L 623 582 L 623 584 L 588 584 Z" fill="black" stroke="none" />
<path d="M 409 584 L 445 584 L 445 586 L 409 586 Z" fill="black" stroke="none" />
<path d="M 586 584 L 621 584 L 621 586 L 586 586 Z" fill="black" stroke="none" />
<path d="M 411 586 L 447 586 L 447 588 L 411 588 Z" fill="black" stroke="none" />
<path d="M 583 586 L 620 586 L 620 588 L 583 588 Z" fill="black" stroke="none" />
<path d="M 413 588 L 450 588 L 450 590 L 413 590 Z" fill="black" stroke="none" />
<path d="M 581 588 L 618 588 L 618 590 L 581 590 Z" fill="black" stroke="none" />
<path d="M 414 590 L 452 590 L 452 592 L 414 592 Z" fill="black" stroke="none" />
<path d="M 578 590 L 616 590 L 616 592 L 578 592 Z" fill="black" stroke="none" />
<path d="M 416 592 L 455 592 L 455 594 L 416 594 Z" fill="black" stroke="none" />
<path d="M 576 592 L 614 592 L 614 594 L 576 594 Z" fill="black" stroke="none" />
<path d="M 417 594 L 458 594 L 458 596 L 417 596 Z" fill="black" stroke="none" />
<path d="M 573 594 L 613 594 L 613 596 L 573 596 Z" fill="black" stroke="none" />
<path d="M 417 596 L 461 596 L 461 598 L 417 598 Z" fill="black" stroke="none" />
<path d="M 570 596 L 612 596 L 612 598 L 570 598 Z" fill="black" stroke="none" />
<path d="M 417 598 L 464 598 L 464 600 L 417 600 Z" fill="black" stroke="none" />
<path d="M 567 598 L 612 598 L 612 600 L 567 600 Z" fill="black" stroke="none" />
<path d="M 417 600 L 467 600 L 467 602 L 417 602 Z" fill="black" stroke="none" />
<path d="M 564 600 L 612 600 L 612 602 L 564 602 Z" fill="black" stroke="none" />
<path d="M 417 602 L 470 602 L 470 604 L 417 604 Z" fill="black" stroke="none" />
<path d="M 561 602 L 612 602 L 612 604 L 561 604 Z" fill="black" stroke="none" />
<path d="M 417 604 L 473 604 L 473 606 L 417 606 Z" fill="black" stroke="none" />
<path d="M 557 604 L 612 604 L 612 606 L 557 606 Z" fill="black" stroke="none" />
<path d="M 417 606 L 478 606 L 478 608 L 417 608 Z" fill="black" stroke="none" />
<path d="M 553 606 L 612 606 L 612 608 L 553 608 Z" fill="black" stroke="none" />
<path d="M 417 608 L 482 608 L 482 610 L 417 610 Z" fill="black" stroke="none" />
<path d="M 549 608 L 612 608 L 612 610 L 549 610 Z" fill="black" stroke="none" />
<path d="M 417 610 L 487 610 L 487 612 L 417 612 Z" fill="black" stroke="none" />
<path d="M 544 610 L 612 610 L 612 612 L 544 612 Z" fill="black" stroke="none" />
<path d="M 417 612 L 494 612 L 494 614 L 417 614 Z" fill="black" stroke="none" />
<path d="M 537 612 L 612 612 L 612 614 L 537 614 Z" fill="black" stroke="none" />
<path d="M 417 614 L 506 614 L 506 616 L 417 616 Z" fill="black" stroke="none" />
<path d="M 525 614 L 612 614 L 612 616 L 525 616 Z" fill="black" stroke="none" />
<path d="M 417 616 L 612 616 L 612 618 L 417 618 Z" fill="black" stroke="none" />
<path d="M 417 618 L 443 618 L 443 620 L 417 620 Z" fill="black" stroke="none" />
<path d="M 448 618 L 583 618 L 583 620 L 448 620 Z" fill="black" stroke="none" />
<path d="M 586 618 L 612 618 L 612 620 L 586 620 Z" fill="black" stroke="none" />
<path d="M 417 620 L 443 620 L 443 622 L 417 622 Z" fill="black" stroke="none" />
<path d="M 451 620 L 580 620 L 580 622 L 451 622 Z" fill="black" stroke="none" />
<path d="M 586 620 L 612 620 L 612 622 L 586 622 Z" fill="black" stroke="none" />
<path d="M 417 622 L 443 622 L 443 624 L 417 624 Z" fill="black" stroke="none" />
<path d="M 454 622 L 577 622 L 577 624 L 454 624 Z" fill="black" stroke="none" />
<path d="M 586 622 L 612 622 L 612 624 L 586 624 Z" fill="black" stroke="none" />
<path d="M 417 624 L 443 624 L 443 626 L 417 626 Z" fill="black" stroke="none" />
<path d="M 457 624 L 573 624 L 573 626 L 457 626 Z" fill="black" stroke="none" />
<path d="M 586 624 L 612 624 L 612 626 L 586 626 Z" fill="black" stroke="none" />
<path d="M 417 626 L 443 626 L 443 628 L 417 628 Z" fill="black" stroke="none" />
<path d="M 461 626 L 570 626 L 570 628 L 461 628 Z" fill="black" stroke="none" />
<path d="M 586 626 L 612 626 L 612 628 L 586 628 Z" fill="black" stroke="none" />
<path d="M 417 628 L 443 628 L 443 630 L 417 630 Z" fill="black" stroke="none" />
<path d="M 465 628 L 566 628 L 566 630 L 465 630 Z" fill="black" stroke="none" />
<path d="M 587 628 L 612 628 L 612 630 L 587 630 Z" fill="black" stroke="none" />
<path d="M 417 630 L 443 630 L 443 632 L 417 632 Z" fill="black" stroke="none" />
<path d="M 469 630 L 562 630 L 562 632 L 469 632 Z" fill="black" stroke="none" />
<path d="M 587 630 L 612 630 L 612 632 L 587 632 Z" fill="black" stroke="none" />
<path d="M 417 632 L 443 632 L 443 634 L 417 634 Z" fill="black" stroke="none" />
<path d="M 473 632 L 558 632 L 558 634 L 473 634 Z" fill="black" stroke="none" />
<path d="M 587 632 L 612 632 L 612 634 L 587 634 Z" fill="black" stroke="none" />
<path d="M 417 634 L 443 634 L 443 636 L 417 636 Z" fill="black" stroke="none" />
<path d="M 478 634 L 553 634 L 553 636 L 478 636 Z" fill="black" stroke="none" />
<path d="M 587 634 L 613 634 L 613 636 L 587 636 Z" fill="black" stroke="none" />
<path d="M 417 636 L 443 636 L 443 638 L 417 638 Z" fill="black" stroke="none" />
<path d="M 484 636 L 547 636 L 547 638 L 484 638 Z" fill="black" stroke="none" />
<path d="M 587 636 L 613 636 L 613 638 L 587 638 Z" fill="black" stroke="none" />
<path d="M 417 638 L 443 638 L 443 640 L 417 640 Z" fill="black" stroke="none" />
<path d="M 492 638 L 539 638 L 539 640 L 492 640 Z" fill="black" stroke="none" />
<path d="M 587 638 L 613 638 L 613 640 L 587 640 Z" fill="black" stroke="none" />
<path d="M 416 640 L 442 640 L 442 642 L 416 642 Z" fill="black" stroke="none" />
<path d="M 587 640 L 613 640 L 613 642 L 587 642 Z" fill="black" stroke="none" />
<path d="M 416 642 L 442 642 L 442 644 L 416 644 Z" fill="black" stroke="none" />
<path d="M 587 642 L 614 642 L 614 644 L 587 644 Z" fill="black" stroke="none" />
<path d="M 416 644 L 442 644 L 442 646 L 416 646 Z" fill="black" stroke="none" />
<path d="M 588 644 L 614 644 L 614 646 L 588 646 Z" fill="black" stroke="none" />
<path d="M 415 646 L 442 646 L 442 648 L 415 648 Z" fill="black" stroke="none" />
<path d="M 588 646 L 614 646 L 614 648 L 588 648 Z" fill="black" stroke="none" />
<path d="M 415 648 L 441 648 L 441 650 L 415 650 Z" fill="black" stroke="none" />
<path d="M 588 648 L 615 648 L 615 650 L 588 650 Z" fill="black" stroke="none" />
<path d="M 414 650 L 441 650 L 441 652 L 414 652 Z" fill="black" stroke="none" />
<path d="M 589 650 L 615 650 L 615 652 L 589 652 Z" fill="black" stroke="none" />
<path d="M 414 652 L 440 652 L 440 654 L 414 654 Z" fill="black" stroke="none" />
<path d="M 589 652 L 616 652 L 616 654 L 589 654 Z" fill="black" stroke="none" />
<path d="M 413 654 L 440 654 L 440 656 L 413 656 Z" fill="black" stroke="none" />
<path d="M 590 654 L 617 654 L 617 656 L 590 656 Z" fill="black" stroke="none" />
<path d="M 412 656 L 439 656 L 439 658 L 412 658 Z" fill="black" stroke="none" />
<path d="M 590 656 L 618 656 L 618 658 L 590 658 Z" fill="black" stroke="none" />
<path d="M 411 658 L 439 658 L 439 660 L 411 660 Z" fill="black" stroke="none" />
<path d="M 591 658 L 618 658 L 618 660 L 591 660 Z" fill="black" stroke="none" />
<path d="M 410 660 L 438 660 L 438 662 L 410 662 Z" fill="black" stroke="none" />
<path d="M 591 660 L 619 660 L 619 662 L 591 662 Z" fill="black" stroke="none" />
<path d="M 409 662 L 437 662 L 437 664 L 409 664 Z" fill="black" stroke="none" />
<path d="M 592 662 L 621 662 L 621 664 L 592 664 Z" fill="black" stroke="none" />
<path d="M 408 664 L 437 664 L 437 666 L 408 666 Z" fill="black" stroke="none" />
<path d="M 593 664 L 622 664 L 622 666 L 593 666 Z" fill="black" stroke="none" />
<path d="M 406 666 L 436 666 L 436 668 L 406 668 Z" fill="black" stroke="none" />
<path d="M 594 666 L 623 666 L 623 668 L 594 668 Z" fill="black" stroke="none" />
<path d="M 405 668 L 435 668 L 435 670 L 405 670 Z" fill="black" stroke="none" />
<path d="M 595 668 L 625 668 L 625 670 L 595 670 Z" fill="black" stroke="none" />
<path d="M 403 670 L 434 670 L 434 672 L 403 672 Z" fill="black" stroke="none" />
<path d="M 596 670 L 627 670 L 627 672 L 596 672 Z" fill="black" stroke="none" />
<path d="M 401 672 L 435 672 L 435 674 L 401 674 Z" fill="black" stroke="none" />
<path d="M 595 672 L 629 672 L 629 674 L 595 674 Z" fill="black" stroke="none" />
<path d="M 399 674 L 438 674 L 438 676 L 399 676 Z" fill="black" stroke="none" />
<path d="M 592 674 L 631 674 L 631 676 L 592 676 Z" fill="black" stroke="none" />
<path d="M 397 676 L 442 676 L 442 678 L 397 678 Z" fill="black" stroke="none" />
<path d="M 588 676 L 633 676 L 633 678 L 588 678 Z" fill="black" stroke="none" />
<path d="M 394 678 L 447 678 L 447 680 L 394 680 Z" fill="black" stroke="none" />
<path d="M 583 678 L 635 678 L 635 680 L 583 680 Z" fill="black" stroke="none" />
<path d="M 392 680 L 452 680 L 452 682 L 392 682 Z" fill="black" stroke="none" />
<path d="M 578 680 L 638 680 L 638 682 L 578 682 Z" fill="black" stroke="none" />
<path d="M 389 682 L 459 682 L 459 684 L 389 684 Z" fill="black" stroke="none" />
<path d="M 572 682 L 641 682 L 641 684 L 572 684 Z" fill="black" stroke="none" />
<path d="M 386 684 L 466 684 L 466 686 L 386 686 Z" fill="black" stroke="none" />
<path d="M 564 684 L 644 684 L 644 686 L 564 686 Z" fill="black" stroke="none" />
<path d="M 383 686 L 475 686 L 475 688 L 383 688 Z" fill="black" stroke="none" />
<path d="M 556 686 L 647 686 L 647 688 L 556 688 Z" fill="black" stroke="none" />
<path d="M 380 688 L 486 688 L 486 690 L 380 690 Z" fill="black" stroke="none" />
<path d="M 545 688 L 650 688 L 650 690 L 545 690 Z" fill="black" stroke="none" />
<path d="M 376 690 L 504 690 L 504 692 L 376 692 Z" fill="black" stroke="none" />
<path d="M 525 690 L 653 690 L 653 692 L 525 692 Z" fill="black" stroke="none" />
<path d="M 373 692 L 657 692 L 657 694 L 373 694 Z" fill="black" stroke="none" />
<path d="M 369 694 L 416 694 L 416 696 L 369 696 Z" fill="black" stroke="none" />
<path d="M 420 694 L 610 694 L 610 696 L 420 696 Z" fill="black" stroke="none" />
<path d="M 613 694 L 661 694 L 661 696 L 613 696 Z" fill="black" stroke="none" />
<path d="M 365 696 L 414 696 L 414 698 L 365 698 Z" fill="black" stroke="none" />
<path d="M 424 696 L 606 696 L 606 698 L 424 698 Z" fill="black" stroke="none" />
<path d="M 616 696 L 665 696 L 665 698 L 616 698 Z" fill="black" stroke="none" />
<path d="M 361 698 L 411 698 L 411 700 L 361 700 Z" fill="black" stroke="none" />
<path d="M 428 698 L 602 698 L 602 700 L 428 700 Z" fill="black" stroke="none" />
<path d="M 619 698 L 669 698 L 669 700 L 619 700 Z" fill="black" stroke="none" />
<path d="M 356 700 L 409 700 L 409 702 L 356 702 Z" fill="black" stroke="none" />
<path d="M 432 700 L 598 700 L 598 702 L 432 702 Z" fill="black" stroke="none" />
<path d="M 621 700 L 673 700 L 673 702 L 621 702 Z" fill="black" stroke="none" />
<path d="M 352 702 L 406 702 L 406 704 L 352 704 Z" fill="black" stroke="none" />
<path d="M 437 702 L 593 702 L 593 704 L 437 704 Z" fill="black" stroke="none" />
<path d="M 624 702 L 678 702 L 678 704 L 624 704 Z" fill="black" stroke="none" />
<path d="M 348 704 L 403 704 L 403 706 L 348 706 Z" fill="black" stroke="none" />
<path d="M 442 704 L 588 704 L 588 706 L 442 706 Z" fill="black" stroke="none" />
<path d="M 627 704 L 682 704 L 682 706 L 627 706 Z" fill="black" stroke="none" />
<path d="M 344 706 L 400 706 L 400 708 L 344 708 Z" fill="black" stroke="none" />
<path d="M 448 706 L 581 706 L 581 708 L 448 708 Z" fill="black" stroke="none" />
<path d="M 630 706 L 686 706 L 686 708 L 630 708 Z" fill="black" stroke="none" />
<path d="M 340 708 L 397 708 L 397 710 L 340 710 Z" fill="black" stroke="none" />
<path d="M 455 708 L 575 708 L 575 710 L 455 710 Z" fill="black" stroke="none" />
<path d="M 633 708 L 690 708 L 690 710 L 633 710 Z" fill="black" stroke="none" />
<path d="M 336 710 L 393 710 L 393 712 L 336 712 Z" fill="black" stroke="none" />
<path d="M 462 710 L 567 710 L 567 712 L 462 712 Z" fill="black" stroke="none" />
<path d="M 635 710 L 694 710 L 694 712 L 635 712 Z" fill="black" stroke="none" />
<path d="M 332 712 L 392 712 L 392 714 L 332 714 Z" fill="black" stroke="none" />
<path d="M 471 712 L 559 712 L 559 714 L 471 714 Z" fill="black" stroke="none" />
<path d="M 635 712 L 698 712 L 698 714 L 635 714 Z" fill="black" stroke="none" />
<path d="M 328 714 L 393 714 L 393 716 L 328 716 Z" fill="black" stroke="none" />
<path d="M 483 714 L 546 714 L 546 716 L 483 716 Z" fill="black" stroke="none" />
<path d="M 634 714 L 702 714 L 702 716 L 634 716 Z" fill="black" stroke="none" />
<path d="M 324 716 L 394 716 L 394 718 L 324 718 Z" fill="black" stroke="none" />
<path d="M 633 716 L 706 716 L 706 718 L 633 718 Z" fill="black" stroke="none" />
<path d="M 320 718 L 395 718 L 395 720 L 320 720 Z" fill="black" stroke="none" />
<path d="M 632 718 L 710 718 L 710 720 L 632 720 Z" fill="black" stroke="none" />
<path d="M 316 720 L 396 720 L 396 722 L 316 722 Z" fill="black" stroke="none" />
<path d="M 631 720 L 714 720 L 714 722 L 631 722 Z" fill="black" stroke="none" />
<path d="M 312 722 L 397 722 L 397 724 L 312 724 Z" fill="black" stroke="none" />
<path d="M 630 722 L 718 722 L 718 724 L 630 724 Z" fill="black" stroke="none" />
<path d="M 308 724 L 398 724 L 398 726 L 308 726 Z" fill="black" stroke="none" />
<path d="M 629 724 L 722 724 L 722 726 L 629 726 Z" fill="black" stroke="none" />
<path d="M 304 726 L 399 726 L 399 728 L 304 728 Z" fill="black" stroke="none" />
<path d="M 628 726 L 726 726 L 726 728 L 628 728 Z" fill="black" stroke="none" />
<path d="M 300 728 L 400 728 L 400 730 L 300 730 Z" fill="black" stroke="none" />
<path d="M 627 728 L 730 728 L 730 730 L 627 730 Z" fill="black" stroke="none" />
<path d="M 297 730 L 401 730 L 401 732 L 297 732 Z" fill="black" stroke="none" />
<path d="M 626 730 L 733 730 L 733 732 L 626 732 Z" fill="black" stroke="none" />
<path d="M 293 732 L 402 732 L 402 734 L 293 734 Z" fill="black" stroke="none" />
<path d="M 625 732 L 737 732 L 737 734 L 625 734 Z" fill="black" stroke="none" />
<path d="M 289 734 L 403 734 L 403 736 L 289 736 Z" fill="black" stroke="none" />
<path d="M 624 734 L 741 734 L 741 736 L 624 736 Z" fill="black" stroke="none" />
<path d="M 286 736 L 404 736 L 404 738 L 286 738 Z" fill="black" stroke="none" />
<path d="M 623 736 L 744 736 L 744 738 L 623 738 Z" fill="black" stroke="none" />
<path d="M 282 738 L 405 738 L 405 740 L 282 740 Z" fill="black" stroke="none" />
<path d="M 622 738 L 748 738 L 748 740 L 622 740 Z" fill="black" stroke="none" />
<path d="M 279 740 L 406 740 L 406 742 L 279 742 Z" fill="black" stroke="none" />
<path d="M 621 740 L 750 740 L 750 742 L 621 742 Z" fill="black" stroke="none" />
<path d="M 278 742 L 407 742 L 407 744 L 278 744 Z" fill="black" stroke="none" />
<path d="M 620 742 L 749 742 L 749 744 L 620 744 Z" fill="black" stroke="none" />
<path d="M 279 744 L 408 744 L 408 746 L 279 746 Z" fill="black" stroke="none" />
<path d="M 619 744 L 749 744 L 749 746 L 619 746 Z" fill="black" stroke="none" />
<path d="M 279 746 L 409 746 L 409 748 L 279 748 Z" fill="black" stroke="none" />
<path d="M 618 746 L 748 746 L 748 748 L 618 748 Z" fill="black" stroke="none" />
<path d="M 280 748 L 410 748 L 410 750 L 280 750 Z" fill="black" stroke="none" />
<path d="M 617 748 L 747 748 L 747 750 L 617 750 Z" fill="black" stroke="none" />
<path d="M 281 750 L 411 750 L 411 752 L 281 752 Z" fill="black" stroke="none" />
<path d="M 616 750 L 746 750 L 746 752 L 616 752 Z" fill="black" stroke="none" />
<path d="M 282 752 L 412 752 L 412 754 L 282 754 Z" fill="black" stroke="none" />
<path d="M 615 752 L 746 752 L 746 754 L 615 754 Z" fill="black" stroke="none" />
<path d="M 282 754 L 413 754 L 413 756 L 282 756 Z" fill="black" stroke="none" />
<path d="M 614 754 L 745 754 L 745 756 L 614 756 Z" fill="black" stroke="none" />
<path d="M 283 756 L 414 756 L 414 758 L 283 758 Z" fill="black" stroke="none" />
<path d="M 613 756 L 744 756 L 744 758 L 613 758 Z" fill="black" stroke="none" />
<path d="M 284 758 L 415 758 L 415 760 L 284 760 Z" fill="black" stroke="none" />
<path d="M 612 758 L 743 758 L 743 760 L 612 760 Z" fill="black" stroke="none" />
<path d="M 285 760 L 416 760 L 416 762 L 285 762 Z" fill="black" stroke="none" />
<path d="M 611 760 L 743 760 L 743 762 L 611 762 Z" fill="black" stroke="none" />
<path d="M 285 762 L 417 762 L 417 764 L 285 764 Z" fill="black" stroke="none" />
<path d="M 610 762 L 742 762 L 742 764 L 610 764 Z" fill="black" stroke="none" />
<path d="M 286 764 L 418 764 L 418 766 L 286 766 Z" fill="black" stroke="none" />
<path d="M 609 764 L 741 764 L 741 766 L 609 766 Z" fill="black" stroke="none" />
<path d="M 287 766 L 419 766 L 419 768 L 287 768 Z" fill="black" stroke="none" />
<path d="M 608 766 L 740 766 L 740 768 L 608 768 Z" fill="black" stroke="none" />
<path d="M 288 768 L 420 768 L 420 770 L 288 770 Z" fill="black" stroke="none" />
<path d="M 607 768 L 740 768 L 740 770 L 607 770 Z" fill="black" stroke="none" />
<path d="M 288 770 L 421 770 L 421 772 L 288 772 Z" fill="black" stroke="none" />
<path d="M 606 770 L 739 770 L 739 772 L 606 772 Z" fill="black" stroke="none" />
<path d="M 289 772 L 422 772 L 422 774 L 289 774 Z" fill="black" stroke="none" />
<path d="M 605 772 L 738 772 L 738 774 L 605 774 Z" fill="black" stroke="none" />
<path d="M 290 774 L 423 774 L 423 776 L 290 776 Z" fill="black" stroke="none" />
<path d="M 604 774 L 737 774 L 737 776 L 604 776 Z" fill="black" stroke="none" />
<path d="M 291 776 L 424 776 L 424 778 L 291 778 Z" fill="black" stroke="none" />
<path d="M 603 776 L 737 776 L 737 778 L 603 778 Z" fill="black" stroke="none" />
<path d="M 291 778 L 425 778 L 425 780 L 291 780 Z" fill="black" stroke="none" />
<path d="M 602 778 L 736 778 L 736 780 L 602 780 Z" fill="black" stroke="none" />
<path d="M 292 780 L 426 780 L 426 782 L 292 782 Z" fill="black" stroke="none" />
<path d="M 601 780 L 735 780 L 735 782 L 601 782 Z" fill="black" stroke="none" />
<path d="M 293 782 L 426 782 L 426 784 L 293 784 Z" fill="black" stroke="none" />
<path d="M 600 782 L 734 782 L 734 784 L 600 784 Z" fill="black" stroke="none" />
<path d="M 294 784 L 427 784 L 427 786 L 294 786 Z" fill="black" stroke="none" />
<path d="M 599 784 L 734 784 L 734 786 L 599 786 Z" fill="black" stroke="none" />
<path d="M 294 786 L 428 786 L 428 788 L 294 788 Z" fill="black" stroke="none" />
<path d="M 598 786 L 733 786 L 733 788 L 598 788 Z" fill="black" stroke="none" />
<path d="M 295 788 L 429 788 L 429 790 L 295 790 Z" fill="black" stroke="none" />
<path d="M 597 788 L 732 788 L 732 790 L 597 790 Z" fill="black" stroke="none" />
<path d="M 296 790 L 430 790 L 430 792 L 296 792 Z" fill="black" stroke="none" />
<path d="M 596 790 L 731 790 L 731 792 L 596 792 Z" fill="black" stroke="none" />
<path d="M 297 792 L 431 792 L 431 794 L 297 794 Z" fill="black" stroke="none" />
<path d="M 596 792 L 730 792 L 730 794 L 596 794 Z" fill="black" stroke="none" />
<path d="M 297 794 L 432 794 L 432 796 L 297 796 Z" fill="black" stroke="none" />
<path d="M 595 794 L 730 794 L 730 796 L 595 796 Z" fill="black" stroke="none" />
<path d="M 298 796 L 433 796 L 433 798 L 298 798 Z" fill="black" stroke="none" />
<path d="M 594 796 L 729 796 L 729 798 L 594 798 Z" fill="black" stroke="none" />
<path d="M 299 798 L 435 798 L 435 800 L 299 800 Z" fill="black" stroke="none" />
<path d="M 593 798 L 728 798 L 728 800 L 593 800 Z" fill="black" stroke="none" />
<path d="M 300 800 L 435 800 L 435 802 L 300 802 Z" fill="black" stroke="none" />
<path d="M 592 800 L 728 800 L 728 802 L 592 802 Z" fill="black" stroke="none" />
<path d="M 300 802 L 436 802 L 436 804 L 300 804 Z" fill="black" stroke="none" />
<path d="M 591 802 L 727 802 L 727 804 L 591 804 Z" fill="black" stroke="none" />
<path d="M 301 804 L 437 804 L 437 806 L 301 806 Z" fill="black" stroke="none" />
<path d="M 590 804 L 726 804 L 726 806 L 590 806 Z" fill="black" stroke="none" />
<path d="M 302 806 L 438 806 L 438 808 L 302 808 Z" fill="black" stroke="none" />
<path d="M 589 806 L 725 806 L 725 808 L 589 808 Z" fill="black" stroke="none" />
<path d="M 302 808 L 439 808 L 439 810 L 302 810 Z" fill="black" stroke="none" />
<path d="M 588 808 L 725 808 L 725 810 L 588 810 Z" fill="black" stroke="none" />
<path d="M 304 810 L 438 810 L 438 812 L 304 812 Z" fill="black" stroke="none" />
<path d="M 589 810 L 723 810 L 723 812 L 589 812 Z" fill="black" stroke="none" />
</svg>