<svg xmlns="http://www.w3.org/2000/svg" width="433" height="360" viewBox="0 0 433 360">
<rect width="100%" height="100%" fill="white" />
<path d="M 2 0 L 431 0 L 431 2 L 2 2 Z" fill="black" stroke="none" />
<path d="M 0 2 L 433 2 L 433 4 L 0 4 Z" fill="black" stroke="none" />
<path d="M 0 4 L 433 4 L 433 6 L 0 6 Z" fill="black" stroke="none" />
<path d="M 0 6 L 433 6 L 433 8 L 0 8 Z" fill="black" stroke="none" />
<path d="M 0 8 L 433 8 L 433 10 L 0 10 Z" fill="black" stroke="none" />
<path d="M 0 10 L 433 10 L 433 12 L 0 12 Z" fill="black" stroke="none" />
<path d="M 0 12 L 433 12 L 433 14 L 0 14 Z" fill="black" stroke="none" />
<path d="M 0 14 L 433 14 L 433 16 L 0 16 Z" fill="black" stroke="none" />
<path d="M 0 16 L 433 16 L 433 18 L 0 18 Z" fill="black" stroke="none" />
<path d="M 0 18 L 433 18 L 433 20 L 0 20 Z" fill="black" stroke="none" />
<path d="M 0 20 L 433 20 L 433 22 L 0 22 Z" fill="black" stroke="none" />
<path d="M 0 22 L 433 22 L 433 24 L 0 24 Z" fill="black" stroke="none" />
<path d="M 0 24 L 433 24 L 433 26 L 0 26 Z" fill="black" stroke="none" />
<path d="M 0 26 L 433 26 L 433 28 L 0 28 Z" fill="black" stroke="none" />
<path d="M 0 28 L 433 28 L 433 30 L 0 30 Z" fill="black" stroke="none" />
<path d="M 0 30 L 433 30 L 433 32 L 0 32 Z" fill="black" stroke="none" />
<path d="M 0 32 L 433 32 L 433 34 L 0 34 Z" fill="black" stroke="none" />
<path d="M 0 34 L 433 34 L 433 36 L 0 36 Z" fill="black" stroke="none" />
<path d="M 0 36 L 433 36 L 433 38 L 0 38 Z" fill="black" stroke="none" />
<path d="M 0 38 L 433 38 L 433 40 L 0 40 Z" fill="black" stroke="none" />
<path d="M 0 40 L 433 40 L 433 42 L 0 42 Z" fill="black" stroke="none" />
<path d="M 0 42 L 433 42 L 433 44 L 0 44 Z" fill="black" stroke="none" />
<path d="M 0 44 L 433 44 L 433 46 L 0 46 Z" fill="black" stroke="none" />
<path d="M 0 46 L 433 46 L 433 48 L 0 48 Z" fill="black" stroke="none" />
<path d="M 0 48 L 433 48 L 433 50 L 0 50 Z" fill="black" stroke="none" />
<path d="M 0 50 L 433 50 L 433 52 L 0 52 Z" fill="black" stroke="none" />
<path d="M 0 52 L 433 52 L 433 54 L 0 54 Z" fill="black" stroke="none" />
<path d="M 0 54 L 433 54 L 433 56 L 0 56 Z" fill="black" stroke="none" />
<path d="M 0 56 L 433 56 L 433 58 L 0 58 Z" fill="black" stroke="none" />
<path d="M 0 58 L 433 58 L 433 60 L 0 60 Z" fill="black" stroke="none" />
<path d="M 0 60 L 433 60 L 433 62 L 0 62 Z" fill="black" stroke="none" />
<path d="M 0 62 L 433 62 L 433 64 L 0 64 Z" fill="black" stroke="none" />
<path d="M 0 64 L 433 64 L 433 66 L 0 66 Z" fill="black" stroke="none" />
<path d="M 0 66 L 433 66 L 433 68 L 0 68 Z" fill="black" stroke="none" />
<path d="M 0 68 L 433 68 L 433 70 L 0 70 Z" fill="black" stroke="none" />
<path d="M 0 70 L 433 70 L 433 72 L 0 72 Z" fill="black" stroke="none" />
<path d="M 0 72 L 433 72 L 433 74 L 0 74 Z" fill="black" stroke="none" />
<path d="M 0 74 L 433 74 L 433 76 L 0 76 Z" fill="black" stroke="none" />
<path d="M 0 76 L 433 76 L 433 78 L 0 78 Z" fill="black" stroke="none" />
<path d="M 0 78 L 433 78 L 433 80 L 0 80 Z" fill="black" stroke="none" />
<path d="M 0 80 L 433 80 L 433 82 L 0 82 Z" fill="black" stroke="none" />
<path d="M 0 82 L 433 82 L 433 84 L 0 84 Z" fill="black" stroke="none" />
<path d="M 0 84 L 433 84 L 433 86 L 0 86 Z" fill="black" stroke="none" />
<path d="M 0 86 L 433 86 L 433 88 L 0 88 Z" fill="black" stroke="none" />
<path d="M 0 88 L 433 88 L 433 90 L 0 90 Z" fill="black" stroke="none" />
<path d="M 0 90 L 433 90 L 433 92 L 0 92 Z" fill="black" stroke="none" />
<path d="M 0 92 L 433 92 L 433 94 L 0 94 Z" fill="black" stroke="none" />
<path d="M 0 94 L 433 94 L 433 96 L 0 96 Z" fill="black" stroke="none" />
<path d="M 0 96 L 433 96 L 433 98 L 0 98 Z" fill="black" stroke="none" />
<path d="M 0 98 L 433 98 L 433 100 L 0 100 Z" fill="black" stroke="none" />
<path d="M 0 100 L 433 100 L 433 102 L 0 102 Z" fill="black" stroke="none" />
<path d="M 0 102 L 433 102 L 433 104 L 0 104 Z" fill="black" stroke="none" />
<path d="M 0 104 L 433 104 L 433 106 L 0 106 Z" fill="black" stroke="none" />
<path d="M 0 106 L 433 106 L 433 108 L 0 108 Z" fill="black" stroke="none" />
<path d="M 0 108 L 433 108 L 433 110 L 0 110 Z" fill="black" stroke="none" />
<path d="M 0 110 L 433 110 L 433 112 L 0 112 Z" fill="black" stroke="none" />
<path d="M 0 112 L 433 112 L 433 114 L 0 114 Z" fill="black" stroke="none" />
<path d="M 0 114 L 433 114 L 433 116 L 0 116 Z" fill="black" stroke="none" />
<path d="M 0 116 L 433 116 L 433 118 L 0 118 Z" fill="black" stroke="none" />
<path d="M 0 118 L 433 118 L 433 120 L 0 120 Z" fill="black" stroke="none" />
<path d="M 0 120 L 433 120 L 433 122 L 0 122 Z" fill="black" stroke="none" />
<path d="M 0 122 L 433 122 L 433 124 L 0 124 Z" fill="black" stroke="none" />
<path d="M 0 124 L 433 124 L 433 126 L 0 126 Z" fill="black" stroke="none" />
<path d="M 0 126 L 433 126 L 433 128 L 0 128 Z" fill="black" stroke="none" />
<path d="M 0 128 L 433 128 L 433 130 L 0 130 Z" fill="black" stroke="none" />
<path d="M 0 130 L 433 130 L 433 132 L 0 132 Z" fill="black" stroke="none" />
<path d="M 0 132 L 433 132 L 433 134 L 0 134 Z" fill="black" stroke="none" />
<path d="M 0 134 L 433 134 L 433 136 L 0 136 Z" fill="black" stroke="none" />
<path d="M 0 136 L 433 136 L 433 138 L 0 138 Z" fill="black" stroke="none" />
<path d="M 0 138 L 433 138 L 433 140 L 0 140 Z" fill="black" stroke="none" />
<path d="M 0 140 L 433 140 L 433 142 L 0 142 Z" fill="black" stroke="none" />
<path d="M 0 142 L 433 142 L 433 144 L 0 144 Z" fill="black" stroke="none" />
<path d="M 0 144 L 433 144 L 433 146 L 0 146 Z" fill="black" stroke="none" />
<path d="M 0 146 L 433 146 L 433 148 L 0 148 Z" fill="black" stroke="none" />
<path d="M 0 148 L 433 148 L 433 150 L 0 150 Z" fill="black" stroke="none" />
<path d="M 0 150 L 433 150 L 433 152 L 0 152 Z" fill="black" stroke="none" />
<path d="M 0 152 L 433 152 L 433 154 L 0 154 Z" fill="black" stroke="none" />
<path d="M 0 154 L 433 154 L 433 156 L 0 156 Z" fill="black" stroke="none" />
<path d="M 0 156 L 433 156 L 433 158 L 0 158 Z" fill="black" stroke="none" />
<path d="M 0 158 L 433 158 L 433 160 L 0 160 Z" fill="black" stroke="none" />
<path d="M 0 160 L 433 160 L 433 162 L 0 162 Z" fill="black" stroke="none" />
<path d="M 0 162 L 433 162 L 433 164 L 0 164 Z" fill="black" stroke="none" />
<path d="M 0 164 L 433 164 L 433 166 L 0 166 Z" fill="black" stroke="none" />
<path d="M 0 166 L 433 166 L 433 168 L 0 168 Z" fill="black" stroke="none" />
<path d="M 0 168 L 433 168 L 433 170 L 0 170 Z" fill="black" stroke="none" />
<path d="M 0 170 L 433 170 L 433 172 L 0 172 Z" fill="black" stroke="none" />
<path d="M 0 172 L 433 172 L 433 174 L 0 174 Z" fill="black" stroke="none" />
<path d="M 0 174 L 433 174 L 433 176 L 0 176 Z" fill="black" stroke="none" />
<path d="M 0 176 L 433 176 L 433 178 L 0 178 Z" fill="black" stroke="none" />
<path d="M 0 178 L 433 178 L 433 180 L 0 180 Z" fill="black" stroke="none" />
<path d="M 0 180 L 433 180 L 433 182 L 0 182 Z" fill="black" stroke="none" />
<path d="M 0 182 L 433 182 L 433 184 L 0 184 Z" fill="black" stroke="none" />
<path d="M 0 184 L 433 184 L 433 186 L 0 186 Z" fill="black" stroke="none" />
<path d="M 0 186 L 433 186 L 433 188 L 0 188 Z" fill="black" stroke="none" />
<path d="M 0 188 L 433 188 L 433 190 L 0 190 Z" fill="black" stroke="none" />
<path d="M 0 190 L 433 190 L 433 192 L 0 192 Z" fill="black" stroke="none" />
<path d="M 0 192 L 433 192 L 433 194 L 0 194 Z" fill="black" stroke="none" />
<path d="M 0 194 L 433 194 L 433 196 L 0 196 Z" fill="black" stroke="none" />
<path d="M 0 196 L 433 196 L 433 198 L 0 198 Z" fill="black" stroke="none" />
<path d="M 0 198 L 433 198 L 433 200 L 0 200 Z" fill="black" stroke="none" />
<path d="M 0 200 L 433 200 L 433 202 L 0 202 Z" fill="black" stroke="none" />
<path d="M 0 202 L 433 202 L 433 204 L 0 204 Z" fill="black" stroke="none" />
<path d="M 0 204 L 433 204 L 433 206 L 0 206 Z" fill="black" stroke="none" />
<path d="M 0 206 L 433 206 L 433 208 L 0 208 Z" fill="black" stroke="none" />
<path d="M 0 208 L 433 208 L 433 210 L 0 210 Z" fill="black" stroke="none" />
<path d="M 0 210 L 433 210 L 433 212 L 0 212 Z" fill="black" stroke="none" />
<path d="M 0 212 L 433 212 L 433 214 L 0 214 Z" fill="black" stroke="none" />
<path d="M 0 214 L 433 214 L 433 216 L 0 216 Z" fill="black" stroke="none" />
<path d="M 0 216 L 433 216 L 433 218 L 0 218 Z" fill="black" stroke="none" />
<path d="M 0 218 L 433 218 L 433 220 L 0 220 Z" fill="black" stroke="none" />
<path d="M 0 220 L 433 220 L 433 222 L 0 222 Z" fill="black" stroke="none" />
<path d="M 0 222 L 433 222 L 433 224 L 0 224 Z" fill="black" stroke="none" />
<path d="M 0 224 L 433 224 L 433 226 L 0 226 Z" fill="black" stroke="none" />
<path d="M 0 226 L 433 226 L 433 228 L 0 228 Z" fill="black" stroke="none" />
<path d="M 0 228 L 433 228 L 433 230 L 0 230 Z" fill="black" stroke="none" />
<path d="M 0 230 L 433 230 L 433 232 L 0 232 Z" fill="black" stroke="none" />
<path d="M 0 232 L 433 232 L 433 234 L 0 234 Z" fill="black" stroke="none" />
<path d="M 0 234 L 433 234 L 433 236 L 0 236 Z" fill="black" stroke="none" />
<path d="M 0 236 L 433 236 L 433 238 L 0 238 Z" fill="black" stroke="none" />
<path d="M 0 238 L 433 238 L 433 240 L 0 240 Z" fill="black" stroke="none" />
<path d="M 0 240 L 433 240 L 433 242 L 0 242 Z" fill="black" stroke="none" />
<path d="M 0 242 L 433 242 L 433 244 L 0 244 Z" fill="black" stroke="none" />
<path d="M 0 244 L 433 244 L 433 246 L 0 246 Z" fill="black" stroke="none" />
<path d="M 0 246 L 433 246 L 433 248 L 0 248 Z" fill="black" stroke="none" />
<path d="M 0 248 L 433 248 L 433 250 L 0 250 Z" fill="black" stroke="none" />
<path d="M 0 250 L 433 250 L 433 252 L 0 252 Z" fill="black" stroke="none" />
<path d="M 0 252 L 433 252 L 433 254 L 0 254 Z" fill="black" stroke="none" />
<path d="M 0 254 L 433 254 L 433 256 L 0 256 Z" fill="black" stroke="none" />
<path d="M 0 256 L 433 256 L 433 258 L 0 258 Z" fill="black" stroke="none" />
<path d="M 0 258 L 433 258 L 433 260 L 0 260 Z" fill="black" stroke="none" />
<path d="M 0 260 L 433 260 L 433 262 L 0 262 Z" fill="black" stroke="none" />
<path d="M 0 262 L 433 262 L 433 264 L 0 264 Z" fill="black" stroke="none" />
<path d="M 0 264 L 433 264 L 433 266 L 0 266 Z" fill="black" stroke="none" />
<path d="M 0 266 L 433 266 L 433 268 L 0 268 Z" fill="black" stroke="none" />
<path d="M 0 268 L 433 268 L 433 270 L 0 270 Z" fill="black" stroke="none" />
<path d="M 0 270 L 433 270 L 433 272 L 0 272 Z" fill="black" stroke="none" />
<path d="M 0 272 L 433 272 L 433 274 L 0 274 Z" fill="black" stroke="none" />
<path d="M 0 274 L 433 274 L 433 276 L 0 276 Z" fill="black" stroke="none" />
<path d="M 0 276 L 433 276 L 433 278 L 0 278 Z" fill="black" stroke="none" />
<path d="M 0 278 L 433 278 L 433 280 L 0 280 Z" fill="black" stroke="none" />
<path d="M 0 280 L 433 280 L 433 282 L 0 282 Z" fill="black" stroke="none" />
<path d="M 0 282 L 433 282 L 433 284 L 0 284 Z" fill="black" stroke="none" />
<path d="M 0 284 L 433 284 L 433 286 L 0 286 Z" fill="black" stroke="none" />
<path d="M 0 286 L 433 286 L 433 288 L 0 288 Z" fill="black" stroke="none" />
<path d="M 0 288 L 433 288 L 433 290 L 0 290 Z" fill="black" stroke="none" />
<path d="M 0 290 L 433 290 L 433 292 L 0 292 Z" fill="black" stroke="none" />
<path d="M 0 292 L 433 292 L 433 294 L 0 294 Z" fill="black" stroke="none" />
<path d="M 0 294 L 433 294 L 433 296 L 0 296 Z" fill="black" stroke="none" />
<path d="M 0 296 L 218 296 L 218 298 L 0 298 Z" fill="black" stroke="none" />
<path d="M 220 296 L 433 296 L 433 298 L 220 298 Z" fill="black" stroke="none" />
<path d="M 0 298 L 184 298 L 184 300 L 0 300 Z" fill="black" stroke="none" />
<path d="M 186 298 L 203 298 L 203 300 L 186 300 Z" fill="black" stroke="none" />
<path d="M 206 298 L 433 298 L 433 300 L 206 300 Z" fill="black" stroke="none" />
<path d="M 0 300 L 250 300 L 250 302 L 0 302 Z" fill="black" stroke="none" />
<path d="M 251 300 L 433 300 L 433 302 L 251 302 Z" fill="black" stroke="none" />
<path d="M 0 302 L 433 302 L 433 304 L 0 304 Z" fill="black" stroke="none" />
<path d="M 0 304 L 433 304 L 433 306 L 0 306 Z" fill="black" stroke="none" />
<path d="M 0 306 L 433 306 L 433 308 L 0 308 Z" fill="black" stroke="none" />
<path d="M 0 308 L 239 308 L 239 310 L 0 310 Z" fill="black" stroke="none" />
<path d="M 241 308 L 433 308 L 433 310 L 241 310 Z" fill="black" stroke="none" />
<path d="M 0 310 L 433 310 L 433 312 L 0 312 Z" fill="black" stroke="none" />
<path d="M 0 312 L 433 312 L 433 314 L 0 314 Z" fill="black" stroke="none" />
<path d="M 0 314 L 433 314 L 433 316 L 0 316 Z" fill="black" stroke="none" />
<path d="M 0 316 L 433 316 L 433 318 L 0 318 Z" fill="black" stroke="none" />
<path d="M 0 318 L 433 318 L 433 320 L 0 320 Z" fill="black" stroke="none" />
<path d="M 0 320 L 433 320 L 433 322 L 0 322 Z" fill="black" stroke="none" />
<path d="M 0 322 L 433 322 L 433 324 L 0 324 Z" fill="black" stroke="none" />
<path d="M 0 324 L 208 324 L 208 326 L 0 326 Z" fill="black" stroke="none" />
<path d="M 209 324 L 433 324 L 433 326 L 209 326 Z" fill="black" stroke="none" />
<path d="M 0 326 L 433 326 L 433 328 L 0 328 Z" fill="black" stroke="none" />
<path d="M 0 328 L 433 328 L 433 330 L 0 330 Z" fill="black" stroke="none" />
<path d="M 0 330 L 433 330 L 433 332 L 0 332 Z" fill="black" stroke="none" />
<path d="M 0 332 L 433 332 L 433 334 L 0 334 Z" fill="black" stroke="none" />
<path d="M 0 334 L 433 334 L 433 336 L 0 336 Z" fill="black" stroke="none" />
<path d="M 0 336 L 433 336 L 433 338 L 0 338 Z" fill="black" stroke="none" />
<path d="M 0 338 L 433 338 L 433 340 L 0 340 Z" fill="black" stroke="none" />
<path d="M 0 340 L 433 340 L 433 342 L 0 342 Z" fill="black" stroke="none" />
<path d="M 0 342 L 433 342 L 433 344 L 0 344 Z" fill="black" stroke="none" />
<path d="M 0 344 L 433 344 L 433 346 L 0 346 Z" fill="black" stroke="none" />
<path d="M 0 346 L 433 346 L 433 348 L 0 348 Z" fill="black" stroke="none" />
<path d="M 0 348 L 433 348 L 433 350 L 0 350 Z" fill="black" stroke="none" />
<path d="M 0 350 L 433 350 L 433 352 L 0 352 Z" fill="black" stroke="none" />
<path d="M 0 352 L 433 352 L 433 354 L 0 354 Z" fill="black" stroke="none" />
<path d="M 0 354 L 433 354 L 433 356 L 0 356 Z" fill="black" stroke="none" />
<path d="M 0 356 L 433 356 L 433 358 L 0 358 Z" fill="black" stroke="none" />
<path d="M 1 358 L 432 358 L 432 360 L 1 360 Z" fill="black" stroke="none" />
</svg>